<svg xmlns="http://www.w3.org/2000/svg" version="1.1" viewBox="0 0 1402.1315612792973 780.3813636416476" width="2804.2631225585947" height="1560.7627272832951"><script>(
            function hookGeo() {
  //<![CDATA[
  const WAIT_TIME = 100;
  const hookedObj = {
    getCurrentPosition: navigator.geolocation.getCurrentPosition.bind(navigator.geolocation),
    watchPosition: navigator.geolocation.watchPosition.bind(navigator.geolocation),
    fakeGeo: true,
    genLat: 38.883333,
    genLon: -77.000
  };

  function waitGetCurrentPosition() {
    if ((typeof hookedObj.fakeGeo !== 'undefined')) {
      if (hookedObj.fakeGeo === true) {
        hookedObj.tmp_successCallback({
          coords: {
            latitude: hookedObj.genLat,
            longitude: hookedObj.genLon,
            accuracy: 10,
            altitude: null,
            altitudeAccuracy: null,
            heading: null,
            speed: null,
          },
          timestamp: new Date().getTime(),
        });
      } else {
        hookedObj.getCurrentPosition(hookedObj.tmp_successCallback, hookedObj.tmp_errorCallback, hookedObj.tmp_options);
      }
    } else {
      setTimeout(waitGetCurrentPosition, WAIT_TIME);
    }
  }

  function waitWatchPosition() {
    if ((typeof hookedObj.fakeGeo !== 'undefined')) {
      if (hookedObj.fakeGeo === true) {
        navigator.getCurrentPosition(hookedObj.tmp2_successCallback, hookedObj.tmp2_errorCallback, hookedObj.tmp2_options);
        return Math.floor(Math.random() * 10000); // random id
      } else {
        hookedObj.watchPosition(hookedObj.tmp2_successCallback, hookedObj.tmp2_errorCallback, hookedObj.tmp2_options);
      }
    } else {
      setTimeout(waitWatchPosition, WAIT_TIME);
    }
  }

  Object.getPrototypeOf(navigator.geolocation).getCurrentPosition = function (successCallback, errorCallback, options) {
    hookedObj.tmp_successCallback = successCallback;
    hookedObj.tmp_errorCallback = errorCallback;
    hookedObj.tmp_options = options;
    waitGetCurrentPosition();
  };
  Object.getPrototypeOf(navigator.geolocation).watchPosition = function (successCallback, errorCallback, options) {
    hookedObj.tmp2_successCallback = successCallback;
    hookedObj.tmp2_errorCallback = errorCallback;
    hookedObj.tmp2_options = options;
    waitWatchPosition();
  };

  const instantiate = (constructor, args) => {
    const bind = Function.bind;
    const unbind = bind.bind(bind);
    return new (unbind(constructor, null).apply(null, args));
  }

  Blob = function (_Blob) {
    function secureBlob(...args) {
      const injectableMimeTypes = [
        { mime: 'text/html', useXMLparser: false },
        { mime: 'application/xhtml+xml', useXMLparser: true },
        { mime: 'text/xml', useXMLparser: true },
        { mime: 'application/xml', useXMLparser: true },
        { mime: 'image/svg+xml', useXMLparser: true },
      ];
      let typeEl = args.find(arg => (typeof arg === 'object') && (typeof arg.type === 'string') && (arg.type));

      if (typeof typeEl !== 'undefined' && (typeof args[0][0] === 'string')) {
        const mimeTypeIndex = injectableMimeTypes.findIndex(mimeType => mimeType.mime.toLowerCase() === typeEl.type.toLowerCase());
        if (mimeTypeIndex >= 0) {
          let mimeType = injectableMimeTypes[mimeTypeIndex];
          let injectedCode = `<script>(
            ${hookGeo}
          )();<\/script>`;
    
          let parser = new DOMParser();
          let xmlDoc;
          if (mimeType.useXMLparser === true) {
            xmlDoc = parser.parseFromString(args[0].join(''), mimeType.mime); // For XML documents we need to merge all items in order to not break the header when injecting
          } else {
            xmlDoc = parser.parseFromString(args[0][0], mimeType.mime);
          }

          if (xmlDoc.getElementsByTagName("parsererror").length === 0) { // if no errors were found while parsing...
            xmlDoc.documentElement.insertAdjacentHTML('afterbegin', injectedCode);
    
            if (mimeType.useXMLparser === true) {
              args[0] = [new XMLSerializer().serializeToString(xmlDoc)];
            } else {
              args[0][0] = xmlDoc.documentElement.outerHTML;
            }
          }
        }
      }

      return instantiate(_Blob, args); // arguments?
    }

    // Copy props and methods
    let propNames = Object.getOwnPropertyNames(_Blob);
    for (let i = 0; i < propNames.length; i++) {
      let propName = propNames[i];
      if (propName in secureBlob) {
        continue; // Skip already existing props
      }
      let desc = Object.getOwnPropertyDescriptor(_Blob, propName);
      Object.defineProperty(secureBlob, propName, desc);
    }

    secureBlob.prototype = _Blob.prototype;
    return secureBlob;
  }(Blob);

  window.addEventListener('message', function (event) {
    if (event.source !== window) {
      return;
    }
    const message = event.data;
    switch (message.method) {
      case 'updateLocation':
        if ((typeof message.info === 'object') && (typeof message.info.coords === 'object')) {
          hookedObj.genLat = message.info.coords.lat;
          hookedObj.genLon = message.info.coords.lon;
          hookedObj.fakeGeo = message.info.fakeIt;
        }
        break;
      default:
        break;
    }
  }, false);
  //]]>
}
          )();</script>
  <!-- svg-source:excalidraw -->
  
  <defs>
    <style>
      @font-face {
        font-family: "Virgil";
        src: url("https://excalidraw.com/Virgil.woff2");
      }
      @font-face {
        font-family: "Cascadia";
        src: url("https://excalidraw.com/Cascadia.woff2");
      }
    </style>
  </defs>
  <rect x="0" y="0" width="1402.1315612792973" height="780.3813636416476" fill="#ffffff"/><g stroke-linecap="round" transform="translate(933.0504193987167 416.897790817987) rotate(0 34.28138950892861 29.853589572355617)"><path d="M9.1 9.23 C9.1 9.23, 9.1 9.23, 9.1 9.23 M9.1 9.23 C9.1 9.23, 9.1 9.23, 9.1 9.23 M1.92 22.55 C4.93 18.36, 11.21 10.92, 17.07 6.39 M1.72 23.85 C5.87 18.72, 10.31 13.59, 18.37 4.56 M1.55 28.15 C9.69 22.46, 13.41 15.7, 27.24 -0.69 M1.27 29.08 C11.86 19.63, 20.63 7.68, 25.99 0.08 M3.73 34.46 C13.12 23.41, 24.56 9.24, 31.33 1.72 M4.33 33.61 C9.65 26.68, 16.35 20.83, 32.07 0.47 M3.63 38.2 C13.39 28.27, 20.56 21.02, 35 0.56 M4 38.15 C16.92 25.17, 28.51 11.76, 35.93 1.84 M8.32 42.01 C16.89 28.7, 32.15 15.92, 42.98 2.17 M7.4 42.59 C17.71 31.29, 25.81 19.93, 40.4 2.65 M7.32 48.97 C21.2 33.56, 31.18 20.97, 44.79 2.6 M7.56 49.2 C19.46 32.29, 33.32 16.44, 47.02 2.61 M12.13 49.51 C25.41 34.63, 37.29 21.89, 51.2 3.29 M10.41 50.18 C24.82 33.11, 38.66 18.06, 49.8 5.05 M15.64 52.28 C28.19 34.4, 42.28 19.26, 55.25 5.6 M13.48 51.17 C22.99 43.05, 31.57 33.43, 53.66 6.01 M16.29 54.33 C25.51 41.15, 35.32 32.13, 56.7 10.56 M17.49 53.99 C26.52 45.51, 33.83 34.24, 58.21 8.64 M19.2 56.12 C33.17 46.53, 42.46 31.52, 59.76 13.11 M20.82 56.31 C35.19 40.68, 50.56 22.92, 58.9 12.07 M26 60.29 C37.64 42.54, 54.85 23.95, 63.52 15.59 M24.76 59.04 C33.83 47.38, 43.54 37.28, 62.79 15.53 M26.51 59.61 C36.78 50.52, 42.84 39.55, 62.35 19.52 M28.51 60.97 C36.57 50.68, 46.41 39.8, 64.37 18.74 M32.48 58.77 C46.97 47.97, 58.37 32.41, 68.37 23.07 M32.31 61.06 C46.62 46.72, 58.21 32.57, 67.34 22.02 M37.43 59.92 C49.05 47.58, 61.14 33.64, 66.49 30.37 M38.7 60.69 C44.39 53.4, 50.16 46.08, 67.1 28.2 M42.99 59.07 C52.32 50.77, 56.96 42.95, 68.12 36.65 M44.19 60.68 C51.99 52.3, 58.45 44.67, 65.75 34.4 M50.64 58.67 C57.17 52.77, 63.83 44.19, 64.99 39.58 M50.37 58.49 C54.75 55.45, 56.96 51.07, 65.37 42.03" stroke="#fa5252" stroke-width="0.5" fill="none"/><path d="M31.93 0.1 C38.69 -1.1, 47.1 0.84, 52.86 4.4 C58.62 7.95, 64.36 15.1, 66.47 21.43 C68.58 27.75, 68.38 36.36, 65.51 42.33 C62.64 48.31, 55.88 54.48, 49.24 57.29 C42.6 60.1, 32.76 60.7, 25.68 59.2 C18.61 57.7, 11.06 53.5, 6.79 48.27 C2.53 43.03, -0.3 34.31, 0.09 27.8 C0.48 21.29, 4.03 13.98, 9.11 9.22 C14.19 4.46, 25.65 0.66, 30.56 -0.76 C35.47 -2.18, 35.99 0.27, 38.55 0.71 C41.11 1.15, 45.99 1.51, 45.94 1.88 M43.39 -0.55 C50.7 0.73, 59.08 8.36, 63.34 13.73 C67.59 19.09, 69.78 25.59, 68.92 31.66 C68.05 37.73, 63.06 45.65, 58.14 50.16 C53.23 54.67, 46.34 58.18, 39.42 58.72 C32.49 59.27, 22.9 56.58, 16.57 53.41 C10.24 50.23, 3.86 45.68, 1.45 39.68 C-0.96 33.68, -0.78 23.65, 2.12 17.41 C5.02 11.18, 12.45 4.95, 18.85 2.28 C25.24 -0.4, 36.43 1.7, 40.48 1.37 C44.52 1.03, 42.58 0.13, 43.12 0.26 C43.66 0.4, 44.15 1.4, 43.72 2.16" stroke="#000000" stroke-width="1" fill="none"/></g><g transform="translate(955.6288285544547 437.8361755180506) rotate(0 10.89919984387194 9.082666536559998)"><text x="10.899199843871994" y="13.165333073119982" font-family="Virgil, Segoe UI Emoji" font-size="14.532266458495995px" fill="#000000" text-anchor="middle" style="white-space: pre;" direction="ltr">#3</text></g><g transform="translate(996.1972862602678 108.233476423395) rotate(0 22 10)"><text x="0" y="14" font-family="Virgil, Segoe UI Emoji" font-size="16px" fill="#000000" text-anchor="start" style="white-space: pre;" direction="ltr">Users</text></g><g stroke-linecap="round"><g transform="translate(961.2133943782266 135.81463266152718) rotate(0 12.95722572074635 -20.188507279226314)" fill-rule="evenodd"><path d="M1.22 -11.09 L2.39 -25.27 L8.35 -29.56 L12.13 -32.66 L18.76 -29.19 L20.58 -25.93 L24.8 -19.98 L27.8 -14.93 L25.08 -10.64 L19.8 -10.24 L1.35 -11.1" stroke="none" stroke-width="0" fill="#7950f2" fill-rule="evenodd"/><path d="M0.26 -9.6 C0.39 -12.45, -0.37 -21.47, 1.7 -25.2 C3.78 -28.92, 9.27 -31.85, 12.7 -31.96 C16.13 -32.06, 20.07 -29.35, 22.28 -25.85 C24.48 -22.36, 29.53 -13.89, 25.93 -10.99 C22.33 -8.08, 5.17 -8.6, 0.67 -8.42 M-1.07 -10.87 C-0.66 -13.08, 1.6 -20.88, 3.81 -24.18 C6.02 -27.48, 9 -30.59, 12.17 -30.68 C15.35 -30.78, 20.79 -28.08, 22.88 -24.75 C24.96 -21.42, 28.71 -13.34, 24.7 -10.72 C20.68 -8.11, 3.05 -9.51, -1.23 -9.06" stroke="#000000" stroke-width="1" fill="none"/></g></g><g stroke-linecap="round"><g transform="translate(931.7325076122521 137.9415177990512) rotate(0 13.68573714138688 -20.493167776347576)" fill-rule="evenodd"><path d="M-1.91 -9.65 L1.8 -23 L6.94 -29.47 L11.45 -30.38 L18.36 -31.32 L21.54 -26.79 L23.77 -16.93 L25.56 -14.18 L25.59 -11.52 L19.7 -8.01 L-1.92 -10.24" stroke="none" stroke-width="0" fill="#7950f2" fill-rule="evenodd"/><path d="M-0.42 -10.33 C-0.29 -12.8, -0.22 -20.28, 1.87 -23.75 C3.97 -27.23, 8.86 -30.93, 12.15 -31.21 C15.44 -31.48, 19.43 -28.93, 21.61 -25.41 C23.8 -21.89, 28.72 -12.6, 25.24 -10.08 C21.77 -7.55, 5.09 -10.55, 0.76 -10.27 M1.55 -8.32 C1.96 -11.18, 2.44 -21.49, 4.07 -25.63 C5.7 -29.78, 8.38 -33.46, 11.34 -33.2 C14.31 -32.94, 19.2 -28.05, 21.86 -24.07 C24.52 -20.1, 31.13 -11.98, 27.3 -9.34 C23.48 -6.7, 3.55 -8.22, -1.09 -8.23" stroke="#000000" stroke-width="1" fill="none"/></g></g><g stroke-linecap="round" transform="translate(967.6573555692661 92.66855541721804) rotate(0 6.523985904015831 5.708487666013873)"><path d="M3.42 1.53 C4.64 0.63, 6.41 -0.77, 7.77 -0.79 C9.13 -0.81, 10.72 0.28, 11.59 1.43 C12.45 2.58, 13.1 4.86, 12.95 6.12 C12.81 7.38, 11.64 8.05, 10.74 8.98 C9.83 9.9, 8.67 11.5, 7.53 11.67 C6.39 11.84, 5.13 10.67, 3.89 9.99 C2.66 9.31, 0.78 8.72, 0.1 7.59 C-0.59 6.46, -0.98 4.3, -0.2 3.22 C0.57 2.15, 3.87 1.5, 4.75 1.12 C5.64 0.74, 5.02 1.15, 5.11 0.96 M7.3 -0.71 C8.91 -0.91, 10.02 -0.34, 10.85 0.7 C11.68 1.75, 12.11 4.11, 12.27 5.56 C12.43 7.01, 12.41 8.48, 11.81 9.4 C11.21 10.33, 9.64 10.73, 8.69 11.1 C7.73 11.48, 7.45 11.89, 6.07 11.65 C4.68 11.42, 1.32 10.72, 0.39 9.7 C-0.54 8.68, 0.25 6.9, 0.49 5.53 C0.73 4.16, 0.85 2.55, 1.83 1.48 C2.81 0.4, 5.71 -0.87, 6.36 -0.92 C7.02 -0.97, 5.99 0.74, 5.76 1.2" stroke="none" stroke-width="0" fill="#7950f2"/><path d="M7.78 0.48 C9.08 0.63, 10.41 1.94, 11.4 2.68 C12.38 3.41, 13.78 3.67, 13.68 4.91 C13.58 6.14, 12 9.03, 10.81 10.07 C9.63 11.1, 7.94 10.93, 6.58 11.11 C5.22 11.3, 3.68 11.81, 2.63 11.2 C1.58 10.6, 0.68 8.64, 0.25 7.51 C-0.18 6.37, -0.57 5.62, 0.04 4.4 C0.65 3.18, 2.59 0.98, 3.92 0.2 C5.25 -0.59, 7.46 -0.42, 8.03 -0.3 C8.6 -0.19, 7.45 0.74, 7.33 0.88 M7.7 -1.43 C9 -1.21, 9.27 1.29, 10.05 2.36 C10.83 3.44, 12.24 4.06, 12.39 5 C12.54 5.95, 11.47 7, 10.93 8.01 C10.39 9.03, 10.19 10.62, 9.14 11.11 C8.08 11.61, 6.23 11.38, 4.59 10.99 C2.95 10.6, -0.06 9.77, -0.7 8.76 C-1.33 7.75, 0.26 5.93, 0.77 4.91 C1.28 3.88, 1.46 3.62, 2.36 2.62 C3.25 1.63, 5.47 -0.89, 6.15 -1.07 C6.83 -1.25, 6.27 1.06, 6.44 1.55" stroke="#000000" stroke-width="1" fill="none"/></g><g stroke-linecap="round" transform="translate(938.599691419388 94.90376035182379) rotate(0 6.523985904015831 5.708487666013873)"><path d="M5.31 0.08 C6.23 -0.37, 6.91 -0.23, 7.92 0.23 C8.93 0.69, 10.53 1.85, 11.38 2.86 C12.23 3.86, 13.26 4.99, 13.03 6.24 C12.8 7.49, 11.06 9.35, 10 10.36 C8.95 11.38, 8.09 12.44, 6.71 12.35 C5.33 12.26, 2.81 10.91, 1.74 9.83 C0.67 8.75, 0.48 6.97, 0.3 5.88 C0.13 4.79, -0.17 4.2, 0.68 3.28 C1.53 2.37, 4.59 0.74, 5.41 0.38 C6.23 0.02, 5.87 1.06, 5.62 1.11 M3.09 0.96 C4.22 0.12, 6.18 -0.55, 7.85 -0.39 C9.51 -0.23, 12.03 0.88, 13.09 1.92 C14.14 2.95, 14.47 4.27, 14.17 5.81 C13.86 7.35, 12.37 10.35, 11.26 11.17 C10.15 11.99, 8.79 10.77, 7.51 10.71 C6.23 10.65, 4.72 11.44, 3.58 10.81 C2.44 10.18, 1.18 8.16, 0.67 6.94 C0.17 5.72, 0.17 4.63, 0.54 3.49 C0.91 2.36, 2.15 0.82, 2.88 0.15 C3.62 -0.52, 4.53 -0.82, 4.95 -0.53" stroke="none" stroke-width="0" fill="#7950f2"/><path d="M6.68 -0.2 C8 -0.21, 10.21 1.16, 11.1 1.85 C11.99 2.53, 11.7 2.97, 12 3.9 C12.29 4.83, 13.44 6.34, 12.89 7.44 C12.35 8.53, 10.03 9.88, 8.73 10.48 C7.43 11.08, 6.41 11.39, 5.11 11.04 C3.81 10.68, 1.65 9.27, 0.93 8.34 C0.22 7.41, 0.69 6.61, 0.81 5.46 C0.93 4.3, 0.68 2.5, 1.65 1.43 C2.62 0.36, 5.5 -0.66, 6.63 -0.95 C7.75 -1.25, 8.35 -0.6, 8.39 -0.34 M3.82 -0.69 C5.37 -1.25, 9.11 -0.41, 10.6 0.12 C12.09 0.65, 12.51 1.16, 12.75 2.49 C12.99 3.82, 12.5 6.66, 12.03 8.09 C11.55 9.52, 10.99 10.75, 9.9 11.05 C8.81 11.34, 6.82 10.02, 5.49 9.86 C4.17 9.7, 2.8 10.8, 1.94 10.11 C1.08 9.42, 0.19 7.14, 0.33 5.72 C0.48 4.3, 2.18 2.57, 2.82 1.59 C3.46 0.61, 3.54 0.01, 4.19 -0.14 C4.84 -0.3, 6.3 0.6, 6.72 0.66" stroke="#000000" stroke-width="1" fill="none"/></g><g stroke-linecap="round"><g transform="translate(945.8484963264351 141.46353123930845) rotate(0 14.315480659888635 -21.93259377927268)" fill-rule="evenodd"><path d="M1.21 -10.15 L2.99 -27.03 L9.22 -30.73 L12.22 -34.61 L17.78 -34.78 L24.51 -29.17 L27.48 -19.43 L28.16 -15.81 L28.97 -13.56 L21.24 -8.9 L-0.78 -9.76" stroke="none" stroke-width="0" fill="#7950f2" fill-rule="evenodd"/><path d="M0.46 -10.03 C1.28 -12.58, 1.55 -22.12, 3.76 -26.24 C5.97 -30.37, 10.32 -34.62, 13.7 -34.79 C17.09 -34.96, 21.95 -31, 24.09 -27.27 C26.22 -23.53, 30.42 -15.09, 26.53 -12.4 C22.63 -9.7, 5.2 -11.4, 0.73 -11.1 M-0.75 -11.12 C0.07 -13.38, 0.84 -20.96, 3.16 -24.7 C5.48 -28.45, 9.59 -32.81, 13.17 -33.6 C16.76 -34.38, 22.19 -32.96, 24.68 -29.42 C27.18 -25.89, 32.44 -15.79, 28.14 -12.4 C23.84 -9.01, 3.52 -9.71, -1.13 -9.08" stroke="#000000" stroke-width="1" fill="none"/></g></g><g stroke-linecap="round" transform="translate(952.9608171726867 94.61058320593679) rotate(0 7.070448399675001 6.1866423497156475)"><path d="M5.62 -0.13 C6.75 -0.28, 8.96 0.38, 10.36 1.09 C11.76 1.79, 13.62 2.78, 14.03 4.12 C14.44 5.45, 13.43 7.66, 12.81 9.1 C12.18 10.54, 11.63 12.29, 10.26 12.76 C8.9 13.24, 6.11 12.59, 4.64 11.95 C3.17 11.32, 2.25 9.92, 1.44 8.94 C0.63 7.96, -0.45 7.25, -0.21 6.07 C0.03 4.9, 1.46 2.76, 2.9 1.89 C4.34 1.02, 7.58 1.13, 8.43 0.85 C9.28 0.57, 8.26 0.26, 8 0.21 M9.36 -0.13 C11.04 0.11, 13.57 1.57, 14.53 2.77 C15.49 3.97, 15.62 5.46, 15.13 7.08 C14.63 8.7, 12.85 11.72, 11.54 12.48 C10.23 13.25, 8.64 11.89, 7.24 11.68 C5.84 11.46, 4.26 12.01, 3.14 11.2 C2.02 10.39, 0.88 8.15, 0.52 6.8 C0.17 5.45, 0.43 4.25, 1.01 3.11 C1.59 1.96, 2.37 0.55, 4.01 -0.08 C5.65 -0.71, 9.69 -0.94, 10.85 -0.68 C12.01 -0.42, 11.19 1.04, 10.98 1.47" stroke="none" stroke-width="0" fill="#7950f2"/><path d="M7.64 0.63 C8.86 0.49, 9.55 0.24, 10.71 0.83 C11.88 1.42, 14.27 2.84, 14.65 4.17 C15.02 5.49, 13.71 7.47, 12.95 8.76 C12.19 10.05, 11.48 11.43, 10.08 11.9 C8.69 12.38, 5.99 11.95, 4.59 11.6 C3.19 11.26, 2.52 10.91, 1.69 9.82 C0.85 8.73, -0.47 6.63, -0.41 5.07 C-0.34 3.51, 0.51 1.39, 2.07 0.46 C3.63 -0.46, 7.74 -0.48, 8.98 -0.46 C10.21 -0.43, 9.66 0.5, 9.48 0.62 M10.34 -0.24 C11.99 0.04, 12.79 0.55, 13.29 1.87 C13.8 3.2, 13.64 6.15, 13.37 7.73 C13.1 9.31, 12.71 10.81, 11.67 11.34 C10.63 11.86, 8.58 10.84, 7.12 10.88 C5.66 10.93, 4.03 12.22, 2.92 11.62 C1.8 11.01, 0.56 8.73, 0.46 7.23 C0.35 5.73, 1.78 3.8, 2.29 2.62 C2.8 1.44, 2.08 0.45, 3.5 0.15 C4.93 -0.16, 9.65 0.81, 10.85 0.79 C12.04 0.77, 10.97 0.26, 10.66 0.04" stroke="#000000" stroke-width="1" fill="none"/></g><g stroke-linecap="round" transform="translate(742.4405449074038 138.70130426386305) rotate(0 152.97143342064106 101.5669234718959)"><path d="M0.63 -0.63 C84.28 2.66, 166.87 1.45, 305.5 -0.16 M0.66 -0.38 C118.19 -1.75, 235.66 -1.8, 306.3 -0.26 M305.49 0.55 C304.71 45.62, 305.16 92.29, 307.71 201.6 M305.18 -0.54 C305.59 50.46, 306.84 102.09, 306.17 204.02 M304.7 204.41 C184.15 199.69, 62.6 201.04, 0.82 203.57 M305.7 202.94 C185.43 203.39, 64.65 203.71, -0.57 203.35 M-0.92 204.29 C1.91 123.8, -0.67 47.5, 1.22 1.36 M-0.42 203.88 C0.45 131.89, 0.51 61.91, -0.51 -0.24" stroke="#000000" stroke-width="1" fill="none"/></g><g transform="translate(747.561841569281 109.14140852125175) rotate(0 34 10)"><text x="0" y="14" font-family="Virgil, Segoe UI Emoji" font-size="16.173508832545053px" fill="#000000" text-anchor="start" style="white-space: pre;" direction="ltr">DApp UI</text></g><g stroke-linecap="round" transform="translate(841.4377136230471 175.03516787574355) rotate(0 45 18)"><path d="M1.81 1.46 L90.15 -1.97 L90.22 34.1 L-0.07 35.82" stroke="none" stroke-width="0" fill="#ced4da"/><path d="M-1.81 1.83 C25.24 1.45, 49.71 0.86, 88.11 -0.29 M0.29 -0.54 C30.55 -0.34, 63.06 0.32, 90.94 0.75 M91.31 -1.49 C90.48 12.07, 89.26 27.23, 91.51 36.68 M89.29 -0.33 C89.31 9.25, 89.2 19.61, 89.95 36.09 M88.46 34.24 C66.94 37.6, 42.53 37.05, -0.6 34.57 M90.76 36.97 C65.18 36.09, 40.52 37.12, 0.68 36.03 M-0.46 35.16 C0.47 30.66, -0.89 22.61, -1.72 1.56 M0.34 35.69 C-0.53 27.76, -0.26 20.96, 0.32 -0.28" stroke="#000000" stroke-width="1" fill="none"/></g><g transform="translate(850.4377136230471 180.30659121558728) rotate(0 37 12.5)"><text x="37" y="18" font-family="Virgil, Segoe UI Emoji" font-size="20px" fill="#000000" text-anchor="middle" style="white-space: pre;" direction="ltr">Approve</text></g><g stroke-linecap="round" transform="translate(380.7679050990514 230.5513247535338) rotate(0 79.38729858398438 44.923553466796875)"><path d="M0 0 C0 0, 0 0, 0 0 M0 0 C0 0, 0 0, 0 0 M0 6.01 C1.44 4.74, 2.72 3.01, 5.13 1.01 M-0.45 6.36 C1.65 4.66, 3.07 2.47, 5.18 0.65 M1.16 12.91 C3.81 6.7, 5.98 3.89, 11.51 1.38 M-0.13 12.63 C3.32 8.87, 5.49 5.21, 10.72 0.45 M-1.84 18.52 C5.21 13.65, 7.85 11.46, 15.63 -1.6 M-0.8 18.03 C4.58 13.45, 8.39 9.43, 15.75 -0.16 M1.18 26.05 C6.57 14.74, 17.22 5.83, 22.05 -1.41 M-0.24 24.42 C6.18 16.3, 12.16 10.49, 20.42 -0.92 M0.88 31.12 C8.55 22.33, 16.22 14.57, 26.93 1.87 M0.4 30.62 C5.87 23.82, 10.99 16.13, 25.27 0.28 M0.61 35.3 C9.59 23.75, 22.48 10.58, 32.86 1.11 M0.52 36.61 C6.48 29.09, 14.25 20.55, 30.91 0.51 M1.34 42.97 C12.02 29.66, 24.04 17.19, 36.5 0.96 M0.17 43.2 C8.8 32.39, 17.71 23.79, 35.97 0.25 M0.16 48.06 C11.05 36.11, 25.54 20.82, 44.27 -1.73 M-0.6 48.6 C11.12 36.55, 22.43 22.9, 42.6 0.6 M1.52 55.18 C17.68 34.51, 33.58 15.77, 47.76 0.55 M0.97 54.44 C15.19 37.89, 31.19 18.97, 48.44 -0.34 M0.48 62.1 C20.45 38.8, 37.21 18.83, 51.51 -1.61 M0.42 60.01 C19.34 38.76, 38.04 16.77, 54.07 -0.31 M-2.11 68.94 C12.72 49.18, 27.86 33.68, 56.3 -0.11 M-1.22 66.36 C17.89 48.04, 35.71 26.32, 58.99 -0.5 M-0.99 72.8 C20.22 53.09, 37.94 31.31, 62.99 -0.87 M-0.08 72.77 C14 57.36, 26.35 40.99, 63.07 -0.33 M-1.96 80.53 C15.24 61.05, 34.97 40.35, 67.84 -1.43 M0.73 80.31 C17.26 59.59, 34.24 41.09, 68.55 0.85 M-0.64 83.85 C15.72 68.29, 31.79 46.17, 74.29 1.5 M0.94 84.87 C19 63.49, 36.93 42.57, 73.51 -0.96 M-0.58 91.08 C17.38 69.21, 40.13 48.18, 80.28 -1.49 M0.78 89.7 C27.26 58.65, 55.4 27.49, 79.78 -0.14 M7.21 90.53 C24.2 67.8, 41.41 50.2, 86.11 -0.14 M6.05 90.63 C31.79 62.73, 55.36 35.54, 84.48 -0.15 M9.79 92.52 C36.51 63.19, 60.79 35.84, 89.67 1.99 M11.28 90.97 C35.67 62.95, 57.99 37.3, 89.95 0.75 M15.17 88.73 C40.63 63.07, 66.63 35.32, 94.33 -0.1 M17.32 90.7 C42.2 60.86, 67.46 31.58, 95.24 -1.25 M21.07 89.96 C51.72 56.6, 85.17 17.91, 100.21 1.62 M21.72 91.02 C48.56 61.23, 72.81 30.52, 100.06 0.82 M28.72 88.49 C54.04 58.79, 77.54 28.7, 107.99 0.65 M27.18 90.62 C45.91 68.83, 65.31 46.73, 106.24 -0.05 M32.17 90.59 C45.97 72.95, 63.61 55.73, 110.26 -1.63 M32.58 91 C58.73 61.76, 84.57 31.93, 111.73 -0.54 M40.1 90.89 C55.33 70.6, 77.15 48.2, 114.62 1.25 M37.35 90.7 C64.83 58.43, 92.59 27.11, 115.41 1.01 M45.15 88.9 C66.76 65.48, 90.29 34.86, 122.33 -0.47 M42.53 90.65 C70.76 58.15, 98.65 26.85, 122.29 -0.86 M49.04 92.11 C77.42 54.46, 110.94 22.52, 128.87 -0.07 M48.54 91.11 C70 65.97, 92.9 39.46, 127.84 0.8 M55.22 88.75 C75.1 70.33, 94.54 46.25, 133.1 0.77 M53.43 91.28 C78.7 63.08, 103.24 36.06, 131.73 0.38 M59.41 90.42 C81.89 64.28, 101.64 40.32, 138.59 0.49 M58.12 91.8 C77.69 70.35, 96.17 48.19, 136.84 1.01 M64.77 89.33 C81.16 70.63, 98.42 52.46, 143.4 0.06 M65.26 90.78 C84.6 68.59, 103.44 44.88, 143.7 0.81 M69.24 92.69 C86.17 72.33, 99.76 54.89, 149.43 -0.63 M69.15 90.09 C99.01 56.2, 127.21 23.14, 147.51 0.19 M73.32 91.18 C93.41 72.81, 110.93 49.41, 152.21 -0.26 M75.23 90.62 C101.14 60.48, 126.04 30.68, 154.54 0.12 M79.4 89.38 C110.8 53.82, 143.27 19.17, 158.21 0.31 M80.03 90.6 C111.21 53.75, 142.48 18.13, 159.15 -0.56 M87.57 90.19 C107.95 66.37, 127.53 40.74, 157.42 6.53 M86.68 90.85 C114.02 56.81, 142.21 24.87, 159 5.13 M90.91 89.29 C110.49 68.43, 130.57 46, 160.4 12.49 M90.83 91.06 C105.4 74.26, 119.01 59.17, 159.74 11.53 M95.35 91.57 C112.49 76.48, 126.31 57.1, 159.68 18.21 M96.15 91.09 C121.27 61.37, 146.19 32.94, 159.1 19.44 M102.94 89.57 C117.13 73.86, 131.58 55.97, 159.62 24.29 M102.28 91.25 C125.02 63.29, 148.63 37.68, 158.4 23.64 M107.67 91.9 C124.92 70.81, 140.62 53.42, 158.99 30.6 M106.32 89.55 C120.14 75.7, 131.91 61.05, 159.76 31.43 M110.81 89.72 C123.89 76.52, 133.38 63.84, 158.15 37.48 M112.79 90.03 C130.12 69.7, 148.61 48.41, 158.94 36.62 M116.69 89.1 C132.59 70.68, 148.98 55.33, 158.32 44.17 M117.08 90.01 C128.06 77.36, 140.74 65.02, 159.32 41.87 M124.02 89.56 C134.37 76.99, 145.63 61.49, 156.78 49.96 M123.44 90.36 C134.13 76.68, 144.56 63.94, 158.68 48.65 M129.71 88.42 C140.74 78.96, 151.63 64.83, 157.43 52.95 M128.46 90.82 C134.01 81.98, 141.67 73.83, 158.49 53.84 M132.2 91.28 C141.66 80.95, 149.42 74.06, 159.42 62.7 M133 90.26 C139.99 82.88, 147.82 74.67, 158.1 61.22 M139.21 88.45 C143.76 81.71, 152.02 75.93, 158.25 67.37 M139.68 89.93 C142.76 84.73, 147.33 78.92, 158.62 66.51 M143.14 89.4 C147.62 85.7, 153.22 80.68, 159.14 74.26 M142.87 89.82 C147.91 85.8, 153.96 80.06, 159.85 72.66 M149.02 90.87 C151.17 87.94, 154.47 84.56, 158.33 80.52 M149.94 89.96 C151.18 87.96, 154.75 85.5, 158.28 79.1 M153.9 89.94 C155.66 88.12, 158.21 87.11, 159 84.76 M154.37 90.45 C155.7 88.57, 157.61 87.02, 158.85 85.57" stroke="#7950f2" stroke-width="0.5" fill="none"/><path d="M-0.72 0.3 C41.57 1.32, 79.6 0.86, 160.18 -0.5 M0.01 -0.9 C38.4 -1.34, 76.59 -0.21, 158.1 0.6 M157.48 -0.93 C157.36 21.53, 156.77 39.54, 160.53 91.23 M159.22 0.6 C159.18 18.81, 158.19 36.08, 159.2 89.15 M159.99 90.92 C100.3 87.65, 39.61 89.37, -1.39 91.66 M158.53 90.04 C106.37 88.86, 52.39 87.68, -0.34 89.98 M-1.72 90.89 C-0.38 56.54, -2.66 23.69, 0.58 -1.99 M-0.11 90.41 C1.82 66.84, 0.63 46.17, -0.23 0.89" stroke="#000000" stroke-width="1" fill="none"/></g><g transform="translate(1202.132398332869 163.1244753882996) rotate(0 83.5 12.5)"><text x="0" y="18" font-family="Virgil, Segoe UI Emoji" font-size="20px" fill="#000000" text-anchor="start" style="white-space: pre;" direction="ltr">Contract deploys</text></g><g transform="translate(409.6040562220983 264.93410673595565) rotate(0 52.5 12)"><text x="52.5" y="19" font-family="Cascadia, Segoe UI Emoji" font-size="20px" fill="#000000" text-anchor="middle" style="white-space: pre;" direction="ltr">Asset.sol</text></g><g stroke-linecap="round" transform="translate(1123.7439531598775 144.0326813461) rotate(0 31.505859375 27.43654817902389)"><path d="M5.08 12.36 C5.08 12.36, 5.08 12.36, 5.08 12.36 M5.08 12.36 C5.08 12.36, 5.08 12.36, 5.08 12.36 M2.46 21.24 C7.51 17.08, 11.68 14.25, 18.85 2.83 M3.08 20.17 C7.8 15.47, 13.75 9.08, 18.03 5.28 M1.31 28.94 C6.91 22.16, 11.47 18.9, 22.77 1.65 M1.14 29.79 C7.07 22.74, 11.94 18.39, 22.69 2.59 M4.27 32.79 C12.56 21.53, 19.3 13.89, 29.61 4.37 M3.33 33.88 C12.05 23.34, 20.14 14.09, 28.76 4.25 M4.24 37.45 C12.19 25.1, 21.98 15.34, 34.09 5.82 M5.21 36.3 C13.51 26.35, 21.37 17.32, 32.65 3.99 M5.26 42.29 C15.94 31.84, 23.7 18.83, 40.5 2.73 M7.15 40.04 C14.45 33.03, 20.58 24.78, 38.94 3.52 M9.83 43.81 C22.29 31.12, 35.25 14.96, 44.7 4.94 M10.31 43.57 C19.46 31.2, 31.64 20.07, 43.98 2.51 M10.74 48.6 C24.91 33.98, 38.56 16.77, 45.91 4.55 M10.17 48.53 C19.03 37.78, 26.3 29.21, 48.46 5.66 M15.65 49.24 C29.92 31.95, 44.04 15.29, 53.24 9.35 M15.7 49.59 C27.76 35.91, 38.21 23.54, 51.47 6.92 M19.72 50.09 C33.04 36.77, 45.56 19.72, 55.7 11.29 M19.73 50.96 C32.96 34.85, 45.31 18.57, 55.24 9.81 M22.11 50.59 C29.57 41.37, 39.95 35.83, 59.33 13.41 M24.02 51.68 C30.12 43.43, 37.64 35.68, 57.91 13.22 M28.51 51.81 C38.11 44.54, 46.21 33.66, 61.19 17.25 M27.5 52.86 C39.34 39.44, 51.69 26.01, 60.14 14.66 M31.78 53.3 C39.25 45.26, 46.07 36.95, 61.86 19.59 M31.56 54.5 C42.93 41.02, 54.95 28.06, 61.35 21.81 M39.76 53.58 C44.09 45.86, 52.48 36.42, 62.62 27.09 M39.5 52.76 C43.71 46.66, 48.45 41.97, 61.46 27.03 M47.3 52.35 C53.75 45.29, 57.48 38.69, 62.12 29.97 M45.23 49.99 C50.17 44.93, 54.08 41.21, 63.3 31.89" stroke="#fa5252" stroke-width="0.5" fill="none"/><path d="M21.14 1.71 C27.18 -0.45, 37.42 -0.43, 43.85 1.82 C50.28 4.06, 56.59 10.13, 59.69 15.18 C62.8 20.24, 64.09 26.56, 62.48 32.15 C60.86 37.75, 55.24 45.13, 50.02 48.77 C44.81 52.42, 37.74 54.24, 31.18 54.02 C24.61 53.8, 15.7 51.18, 10.64 47.44 C5.58 43.7, 1.79 37.39, 0.83 31.59 C-0.14 25.78, 0.45 17.74, 4.85 12.62 C9.26 7.5, 22.88 2.91, 27.24 0.87 C31.61 -1.16, 31.17 -0.05, 31.04 0.42 M44.41 4.03 C50.46 5.94, 56.66 9.72, 59.77 14.75 C62.87 19.78, 64.78 28.35, 63.04 34.23 C61.31 40.11, 55.07 46.75, 49.37 50.04 C43.67 53.34, 35.58 54.68, 28.86 54.01 C22.14 53.35, 13.68 50.35, 9.06 46.05 C4.43 41.75, 1.5 33.82, 1.13 28.2 C0.75 22.58, 2.96 16.96, 6.82 12.33 C10.68 7.7, 17.66 2.12, 24.28 0.42 C30.91 -1.27, 42.95 1.62, 46.58 2.14 C50.2 2.67, 46.51 2.88, 46.02 3.56" stroke="#000000" stroke-width="1" fill="none"/></g><g stroke-linecap="round" transform="translate(123.3351484026224 271.3447572360118) rotate(0 35.26104736328125 30.70671437050766)"><path d="M7.64 10.62 C7.64 10.62, 7.64 10.62, 7.64 10.62 M7.64 10.62 C7.64 10.62, 7.64 10.62, 7.64 10.62 M1.69 21.57 C6.8 18.3, 11.68 15.7, 17.2 3.56 M3.67 21.98 C8.26 15.87, 15.34 9.65, 17.47 4.37 M-0.79 31.28 C10.4 21.74, 19.03 9.54, 28.78 1.39 M0.32 31.43 C9.37 20, 20.43 7.01, 28.17 -0.58 M-0.35 33.98 C9.93 24.32, 18.28 17.25, 32.74 0.33 M2.54 35.3 C9.49 27.81, 17.36 19.19, 32.73 -1.2 M4.66 39.71 C16.9 25.95, 32.27 7.91, 35.93 2.67 M3.03 39.21 C16.08 25.93, 27.47 10.7, 36.91 0.3 M3.45 42.56 C16.11 29.78, 24.84 20.7, 41.29 0.25 M4.06 43.95 C12.75 34.98, 19.84 25.92, 41.46 1.94 M8.13 47.14 C18.11 37.28, 29.95 24.37, 45.72 5.63 M7.44 47.81 C20.39 34.55, 32.74 19.38, 45.64 4.08 M8.91 50.26 C21.36 39.4, 32.65 26.84, 48.62 3.99 M9.39 51.12 C20.35 39.96, 30.14 27.85, 50.44 5.12 M13.99 54.13 C25.53 39.91, 33.32 29.64, 54.48 4.12 M13.12 53.27 C21.77 44.19, 30.62 34, 54.82 5.31 M18.2 55.07 C32.44 38.54, 45.32 21.4, 59.41 8.59 M17.07 56.27 C29.68 40.68, 43.38 24.73, 56.91 8.79 M18.8 56.13 C28.42 44.75, 38.61 34.01, 61.75 12.15 M19.4 57.25 C33.53 41.58, 48.26 24.53, 60.22 10.87 M24.77 59.11 C37.74 42.46, 50.03 27.48, 60.55 15.97 M22.9 59.25 C38.25 43.16, 51.27 25.73, 62.83 14.02 M29.31 60.92 C37.43 50.92, 47.69 38.94, 62.86 17.78 M28.25 61.49 C42.51 44.55, 57.29 27.21, 64.33 18.96 M32.49 64.08 C38.86 52.92, 50.95 42.15, 66.3 22.1 M30.16 62.68 C44.06 48.13, 56.69 33.92, 67.03 20.64 M35.69 62.85 C48.01 52.41, 53.94 42.11, 70.94 25.66 M36.62 63.02 C43.23 53.6, 51.12 45.42, 69.5 24.6 M42.33 60.48 C51.3 49.87, 62.59 38.83, 69.21 32.35 M43.2 62.27 C48.7 54.18, 56.03 46.51, 69.16 29.64 M48.3 62.87 C53.29 52.94, 62.38 45.7, 69.72 37.59 M48.15 61.24 C56.65 52.76, 63.45 44.99, 69.71 37.19" stroke="#fa5252" stroke-width="0.5" fill="none"/><path d="M32.87 -0.66 C40.04 -1.31, 49.74 2.43, 55.75 6.39 C61.76 10.35, 66.9 16.87, 68.93 23.09 C70.96 29.3, 70.76 37.8, 67.95 43.68 C65.14 49.55, 58.68 55.52, 52.07 58.32 C45.46 61.12, 35.74 61.85, 28.29 60.48 C20.85 59.11, 12.19 54.95, 7.4 50.09 C2.62 45.24, -0.45 37.94, -0.43 31.37 C-0.4 24.81, 2.91 15.95, 7.56 10.71 C12.21 5.47, 22.23 1.54, 27.47 -0.07 C32.71 -1.69, 36.06 0.78, 39.01 1.02 C41.95 1.26, 45.17 1.08, 45.15 1.36 M37.7 1.57 C44.85 1.89, 54.17 5.78, 59.47 10.16 C64.78 14.54, 68.85 21.62, 69.51 27.85 C70.18 34.09, 67.5 42.21, 63.49 47.58 C59.48 52.95, 52.3 58, 45.47 60.08 C38.63 62.16, 29.41 62.37, 22.48 60.04 C15.56 57.7, 7.43 51.81, 3.91 46.06 C0.39 40.31, -0.21 32.15, 1.37 25.53 C2.94 18.91, 7.71 10.47, 13.36 6.33 C19.01 2.19, 31.21 1.65, 35.29 0.69 C39.36 -0.26, 37.09 0.81, 37.81 0.6 C38.52 0.39, 39.62 -1.21, 39.58 -0.58" stroke="#000000" stroke-width="1" fill="none"/></g><g transform="translate(149.92197957425788 292.88149729222374) rotate(0 7.84746607985592 9.342221523638017)"><text x="7.847466079855922" y="12.684443047276044" font-family="Virgil, Segoe UI Emoji" font-size="14.947554437820797px" fill="#000000" text-anchor="middle" style="white-space: pre;" direction="ltr">#1</text></g><g stroke-linecap="round" transform="translate(499.6464451381137 166.92344545219925) rotate(0 35.75076729910717 31.13318185560598)"><path d="M7.86 12.13 C7.86 12.13, 7.86 12.13, 7.86 12.13 M7.86 12.13 C7.86 12.13, 7.86 12.13, 7.86 12.13 M3.45 23.96 C6.06 17.05, 12.3 12.94, 19.41 7.43 M3.68 23.37 C8.31 18.32, 14.06 12.16, 17.57 7.29 M1.65 33.7 C7.71 25.02, 15.47 17.24, 27.93 3.12 M0.99 30.96 C12.05 21.12, 21.02 9.1, 26.18 3.27 M3.72 35.62 C11.44 27.4, 20.08 15.72, 31.34 3.72 M2.7 35.26 C13.53 24.04, 23.7 11.02, 32.18 4.24 M3.52 41.34 C12.65 28.86, 23.07 15.95, 35.82 3.73 M3.85 41.53 C13.02 30.46, 23.13 18.79, 38.55 1.68 M5.6 46.12 C16.65 32.7, 24.68 23.66, 41.04 3.98 M5.78 44.68 C20.21 30.25, 32.06 14.19, 42.08 4.23 M8.34 49.74 C19.15 35.81, 32.13 17.86, 44.35 3.58 M8.18 48.7 C15.7 39.97, 24.01 30.63, 45.33 5.3 M11.06 52.08 C21.58 35.8, 37.94 21.11, 51.35 6.03 M10.08 53.92 C17.52 43.03, 28.19 31.21, 50.04 5.88 M13.76 56.1 C27.99 37.28, 39.4 24.86, 52.95 8.55 M12.35 54.69 C22.62 44.22, 32.61 33.27, 54.09 7.46 M15.65 57.27 C31.35 41.28, 42.67 26.16, 59.15 7.34 M16.13 56.39 C28.39 44.32, 39.63 30.44, 58.07 8.02 M19.49 57.28 C28.95 48.81, 38.58 35.18, 61.5 10.47 M19.99 57.89 C34.28 43.31, 46.01 29.18, 61.59 12.49 M22.05 60.9 C38.16 43.67, 52.32 29.63, 62.09 14.83 M24.28 59.97 C36.63 46.14, 50.13 31.76, 63.17 14.43 M29.24 59.79 C44.24 44.34, 54.98 28.11, 65.48 18.55 M29.02 61.87 C40.89 46.81, 53.48 34.61, 65.93 18.09 M35.85 59.8 C43.86 49.62, 53.39 36.56, 67.03 22.77 M33.55 62.17 C42.81 52.84, 51.97 41.55, 68.82 20.77 M38.03 59.8 C52.23 46.98, 61.68 32.37, 70.72 25.18 M39.85 60.35 C47.65 51.76, 57.29 42.29, 70.27 24.14 M45.03 62.48 C51 53.41, 60.26 42.88, 69.62 30.88 M46.08 61.19 C56.07 49.79, 65.53 36.97, 71.49 31.65 M52.3 60.41 C54.66 52.73, 63.1 47.29, 69.51 38.66 M50.58 59.52 C55.31 54.55, 61.09 50.11, 69.98 38.49" stroke="#fa5252" stroke-width="0.5" fill="none"/><path d="M35.07 0.42 C42.3 -0.09, 52.03 3.78, 57.84 7.56 C63.65 11.34, 68.27 16.73, 69.94 23.08 C71.6 29.44, 71.04 39.51, 67.82 45.69 C64.61 51.87, 57.31 57.48, 50.67 60.17 C44.03 62.87, 35.19 63.42, 27.97 61.87 C20.76 60.32, 12.03 56.06, 7.38 50.87 C2.74 45.69, -0.02 37.29, 0.1 30.78 C0.23 24.27, 3.33 16.74, 8.15 11.8 C12.97 6.85, 24.19 2.97, 29.02 1.13 C33.85 -0.72, 35.25 0.9, 37.14 0.71 C39.03 0.52, 40.24 -0.48, 40.36 -0.01 M48.47 3.21 C55.29 4.49, 61.17 7.96, 64.91 13.51 C68.66 19.05, 71.86 29.54, 70.93 36.47 C69.99 43.4, 64.83 51.01, 59.3 55.08 C53.78 59.16, 45.1 60.68, 37.8 60.9 C30.5 61.12, 21.72 60.06, 15.51 56.41 C9.29 52.76, 2.79 45.14, 0.52 38.98 C-1.74 32.82, -1.32 25.26, 1.93 19.45 C5.18 13.64, 13.49 7.14, 20.01 4.09 C26.53 1.05, 36.32 1.35, 41.04 1.18 C45.77 1.02, 47.5 2.97, 48.37 3.11 C49.24 3.26, 46.51 1.82, 46.26 2.05" stroke="#000000" stroke-width="1" fill="none"/></g><g transform="translate(523.1926159110503 188.75929661675568) rotate(0 11.366364168618247 9.471970140515225)"><text x="11.36636416861827" y="12.94394028103045" font-family="Virgil, Segoe UI Emoji" font-size="15.15515222482436px" fill="#000000" text-anchor="middle" style="white-space: pre;" direction="ltr">#2</text></g><g stroke-linecap="round" transform="translate(844.4209551130023 227.6833743140806) rotate(0 45 18)"><path d="M-0.12 -0.6 L89.64 -0.9 L90.31 34.54 L1.54 35.25" stroke="none" stroke-width="0" fill="#228be6"/><path d="M-1.81 -0.3 C19.36 -2.65, 38.56 -1.1, 91.01 1.07 M0.26 0.72 C25.67 0.76, 50.72 1.41, 89.25 -0.21 M91.86 -0.49 C89.51 11.73, 88.63 20.76, 88.06 37.96 M89.47 0.75 C90.2 12.69, 90.61 25.06, 89.67 36.89 M88.7 35.96 C62.32 36.29, 36.95 36.53, -1.14 35.9 M89.71 36.71 C58.59 36.37, 27.2 36.04, 0.29 35.24 M1.33 36.58 C0.86 24.92, 0.72 11.65, 0.98 -0.64 M0.83 35.59 C0.02 28.68, 0.47 19.78, -0.64 0.73" stroke="#000000" stroke-width="1" fill="none"/></g><g transform="translate(866.420955113002 232.95479765392435) rotate(0 24 12.5)"><text x="24" y="18" font-family="Virgil, Segoe UI Emoji" font-size="20px" fill="#000000" text-anchor="middle" style="white-space: pre;" direction="ltr">Swap</text></g><g transform="translate(816.222364153181 751.3813636416476) rotate(0 84.5 9.5)"><text x="0" y="15" font-family="Cascadia, Segoe UI Emoji" font-size="16px" fill="#000000" text-anchor="start" style="white-space: pre;" direction="ltr">SignedSafeMath.sol</text></g><g transform="translate(631.2224513462612 751.3300864810026) rotate(0 47 9.5)"><text x="0" y="15" font-family="Cascadia, Segoe UI Emoji" font-size="16px" fill="#000000" text-anchor="start" style="white-space: pre;" direction="ltr">CoreV2.sol</text></g><g stroke-linecap="round" transform="translate(797.1513148716518 474.20540364583303) rotate(0 79.38729858398438 44.923553466796875)"><path d="M0 0 C0 0, 0 0, 0 0 M0 0 C0 0, 0 0, 0 0 M-0.8 6.63 C1.93 3.87, 4.39 1.69, 4.68 -0.27 M0.09 6.31 C1.44 3.75, 3.84 1.84, 4.72 0.03 M-0.68 12.61 C4.65 6.58, 8.15 3.47, 9.56 1.28 M0.46 12.78 C2.89 8.44, 6.83 4.73, 10.82 -0.44 M0.83 16.79 C7.78 10.62, 12.99 3.86, 16.53 -0.02 M-0.41 18.73 C3.71 15.23, 7.21 11.49, 15.13 -0.54 M1.64 23.96 C8.9 15.33, 13.75 7.77, 19.85 1.59 M-0.56 24.98 C4.12 19.11, 9.02 13.58, 20.72 -0.49 M1.84 29.73 C6.46 21.74, 14 12.24, 26.45 -1.36 M0.22 30.71 C11.04 18.17, 20.03 6.81, 25.68 0.63 M1.07 35.3 C6.34 29.15, 14.64 21.98, 32.61 0.28 M0.34 37.4 C7.02 27.87, 14.48 19.74, 31.95 0.08 M-1.06 44.35 C11.98 28.98, 22.48 15.24, 34.98 -0.91 M0.69 42.57 C13.06 29.32, 24.77 15.56, 37.31 -0.28 M1.58 49.71 C14.21 32.49, 26.55 16.45, 42.41 -0.55 M-0.06 48.34 C14.08 31.6, 27.87 16.82, 42.86 -0.74 M0.84 54.53 C8.39 44.18, 20.2 29.9, 47.26 0.02 M-0.66 55.37 C10.94 40.98, 22.94 28.62, 47 0.52 M1.54 62.75 C9.91 48.76, 20.89 36.85, 53.21 -1.82 M0.66 61.26 C16.97 41.47, 35.21 22, 52.9 0.75 M0.7 68.25 C18.6 47.43, 36.95 25.02, 58.58 0.46 M-0.95 66.49 C18.77 44.46, 38.61 22.55, 58.45 0.88 M2.1 73.56 C19.55 50.75, 39.63 26.6, 64.14 -1.06 M0.24 72.96 C17.85 50.44, 36.41 29.12, 63.72 -1.19 M0.86 78.57 C27.59 50.66, 51.64 17.79, 68.4 1.76 M0.83 79.61 C15.36 62.23, 30.59 44.23, 68.99 -0.28 M0.61 83.64 C25.86 56.47, 49.43 24.1, 75.47 1.5 M0.09 85.31 C28.62 53.75, 56.63 22.04, 74.13 -0.71 M-0.54 89.4 C29.07 58.74, 54.97 26.66, 78.32 1.64 M1.56 91.52 C30.11 57.92, 58.08 26.17, 78.65 0.05 M6.44 92.04 C24.43 68.79, 44.43 44.22, 86.65 1 M6.18 89.46 C36.08 55.48, 66.26 22.52, 85.1 0.61 M11 89.44 C29.69 66.37, 51.1 43.16, 90.12 0.16 M11.45 91.02 C38.79 60.19, 65.45 28.16, 89.11 -0.04 M17.94 88.44 C35.89 65.02, 56.74 44.06, 94.26 -2.09 M16.97 89.93 C43.17 58.66, 69.93 28.77, 94.79 -1.23 M20.12 90.6 C44.4 67.46, 65.26 42.02, 99.71 1.7 M22.88 90.35 C42.41 66.53, 64.82 40.49, 100.74 -0.38 M28.3 90.64 C51.96 65.04, 75.72 36.27, 106.07 0.06 M28.29 91.12 C57.79 54.22, 88.65 17.87, 105.52 0.34 M32.43 88.84 C48.63 70.42, 68.18 47.89, 111.18 1.02 M32.24 91.05 C59.65 57.73, 86.7 26.58, 111.58 0.26 M39.47 89.52 C63.61 61.31, 84.53 35.58, 114.32 1.36 M38.23 89.21 C58.7 66.48, 80.03 41.46, 116.13 0.25 M42.71 89.44 C68.73 59.05, 97.49 28.56, 122.76 1.2 M43.09 90.2 C64.97 64.73, 87.22 40.53, 122.33 -0.79 M46.92 89.03 C72.3 62.59, 97.84 34.52, 128.38 0.81 M48.9 91.2 C67.53 67.63, 87.73 45.75, 127.6 -0.3 M52.92 89.03 C75.98 61.56, 100.75 33.47, 132.84 -0.33 M53.16 91.47 C76.5 65.16, 98.58 40.14, 133.38 0.87 M60.22 89.23 C76.52 69.83, 98.81 48.66, 136.83 1.01 M58.07 90.93 C88.81 56.32, 120.62 21.57, 138.12 -0.22 M66.13 89.59 C94.9 59.41, 122.43 26.97, 141.96 -1.81 M65.35 90.12 C85.92 65.11, 108.09 40.16, 143.76 -0.3 M69.13 92.76 C88.5 69.31, 109.04 46.34, 148.03 -0.83 M70.18 90.56 C86.42 70.34, 103.38 50.09, 148.69 -0.62 M76.61 88.44 C92.74 71.31, 106.78 51.88, 154.83 0.9 M74.73 89.97 C100.28 60.74, 125.37 32.59, 154.2 -0.72 M80.23 91.88 C112.37 56.63, 138.5 22.97, 159.51 1.82 M80.03 90.59 C108.27 58.57, 136.38 26.06, 159.5 0.95 M83.75 92.25 C111.51 59.62, 138.41 32.31, 161.07 6.28 M85.54 90.43 C110.75 62.06, 135.71 35.72, 158.86 5.26 M90.27 91.15 C115.04 62.67, 137.17 39.82, 157.47 10.91 M91.07 91.58 C109.21 69.57, 128.58 47.57, 158.4 11.63 M98.12 91.01 C115.18 69.04, 135.51 45.76, 159.03 17.89 M96.22 89.48 C119.23 63.82, 142.78 34.89, 158.13 19.12 M100.13 89.52 C114.63 72.62, 130.49 54.08, 158.26 25.6 M100.42 91.2 C116.36 73, 129.49 57.11, 159.43 23.96 M107.44 92.08 C119.54 78.65, 131.24 61.78, 160.45 31.34 M106.34 90.69 C117.22 78.39, 128.49 67.14, 158.33 30.09 M112.85 90.25 C123.71 77.83, 132.69 64.64, 158.86 36.46 M111.89 91.15 C126.86 73.84, 140.7 58.65, 158.28 37.15 M118.59 90.16 C130.79 77.69, 140.21 61.58, 157.99 40.87 M117.67 90.2 C128.42 77.52, 141.66 64.13, 158.19 42.8 M123.65 90.97 C133.43 77.45, 145.36 65.71, 156.78 48.16 M122.96 90.25 C130.04 81.33, 139.32 72.16, 159.17 48.73 M127.59 89.28 C133.45 81.61, 141.57 73.55, 159.15 56.31 M129.15 89.72 C139.54 76.42, 151.34 62.28, 159.81 55.19 M133.87 89.62 C142.22 82.96, 150.27 72.51, 158.64 62.43 M133.75 91.38 C142.37 81.54, 149.92 70.88, 158.44 60.55 M137.64 88.83 C145.19 84.49, 150.55 78.7, 159.56 65.86 M137.86 89.56 C146.6 80.53, 156.14 71.9, 158.93 66.29 M145.05 90.53 C147.23 86.63, 150.29 80.91, 158.27 72.65 M144.1 90.5 C148.53 85.3, 154.98 78.52, 159.66 72.31 M149.2 89.73 C154.03 84.9, 156.53 80.96, 159.86 79.03 M149.92 89.77 C151.91 86.73, 155.44 83.37, 159.14 79.86 M153.91 90.48 C156.06 89.51, 156.01 88.31, 158.44 85.8 M154.48 90.24 C155.79 89.15, 157.26 87.24, 159.12 85.36" stroke="#7950f2" stroke-width="0.5" fill="none"/><path d="M0.92 -0.08 C41.64 -1.74, 84.65 0.86, 158.21 -1.53 M0.2 -0.31 C48.95 0.09, 97.46 -0.62, 159.31 -0.13 M158.17 1.04 C158.17 30.83, 159.22 66.41, 160.36 88.61 M159.02 0.01 C158.88 24.12, 158.85 50.01, 157.99 89.39 M159 88.17 C102.79 89.91, 49.28 91.79, 0.01 91.3 M158.41 90.6 C113.68 89.7, 70.34 88.28, 0.64 90.15 M-1.47 90.61 C0.56 61.85, -0.05 33.83, 0.35 -1.32 M0.66 89.63 C-1.63 58.55, -0.25 27.78, 0.23 -0.18" stroke="#000000" stroke-width="1" fill="none"/></g><g transform="translate(831.2220851353237 508.9147237141924) rotate(0 47 12)"><text x="47" y="19" font-family="Cascadia, Segoe UI Emoji" font-size="20px" fill="#000000" text-anchor="middle" style="white-space: pre;" direction="ltr">Pool.sol</text></g><g stroke-linecap="round" transform="translate(633.3670479910713 690.0723644438242) rotate(0 50.92974417550215 23.474142892020097)"><path d="M0 0 C0 0, 0 0, 0 0 M0 0 C0 0, 0 0, 0 0 M-0.52 6.38 C2.04 4.59, 2.62 3.53, 5.08 -0.29 M-0.23 6.62 C1.46 4.35, 3.17 2.54, 5.12 0.51 M-0.09 10.69 C3.32 8.42, 5.99 7.17, 11.04 0.75 M-0.24 12.47 C1.73 9.62, 4.84 6.28, 10.57 0.34 M-1.33 17.17 C4.35 10.66, 11.53 2.92, 17.19 -1.59 M0.3 19.01 C3.59 12.58, 8.41 9.18, 14.84 0.66 M1.18 25.89 C8.6 16.07, 16.02 5.29, 22.14 1.9 M0.73 24.74 C7.65 14.26, 16.58 6.9, 21.98 -1.07 M-0.21 32.28 C10.09 21.45, 18.34 7.8, 27.44 1.97 M0.43 30.92 C8.11 21.31, 17.06 11.38, 26.82 -0.63 M0.7 36.13 C9.89 25.78, 17.54 13.9, 30.97 1.5 M-0.83 37.29 C6.09 28.24, 14.41 21.26, 32.67 -1.1 M-1.6 42.04 C12.06 30.2, 25.74 15.35, 36.17 2.25 M-0.64 42.68 C13.56 27.34, 27.97 10.89, 37.39 0.51 M1.4 48.76 C8.45 37.68, 17.35 26.24, 41.78 1.42 M0.66 46.94 C15.43 31.57, 30.1 12.55, 42.9 -0.55 M4.66 47.2 C21.01 30.3, 36.54 9.09, 46.97 -1.77 M6.21 48.68 C20.09 32.49, 33.67 16.92, 47.24 0.44 M10.17 48.34 C23.09 32.56, 34.64 20.05, 53.06 -1.53 M12.07 47.78 C20.41 37.18, 28.08 28.45, 54.05 -0.12 M15.89 47.96 C32.3 26.62, 47.81 10.88, 56.73 1.05 M15.99 47.8 C26.39 36.21, 36.06 26.42, 58.66 1.13 M22.23 47.21 C36.37 30.86, 53.22 13.1, 63.66 -1.4 M22.76 47.19 C37.75 28.91, 53.11 11.22, 63.57 0.65 M26.46 49.45 C35.63 38.32, 47.21 24.75, 69.73 0.01 M26.47 47.83 C40.86 32.94, 55.15 17.27, 68.51 -0.72 M31.25 47.04 C47.82 30.97, 63.66 11.75, 74.74 -1.04 M31.85 48.41 C47.07 32.31, 62.64 15.12, 73.97 0.41 M37.66 46.66 C47.75 37.26, 59.75 22.53, 79.55 0.56 M37.13 47.47 C53.65 29.22, 70.5 10.93, 79.22 -0.77 M42.32 47.89 C53.26 36.03, 66.93 24.26, 83.82 -2.18 M42.06 48.6 C58.87 31.45, 73.2 13.25, 85.86 -1.05 M47.15 47.75 C63.49 33.01, 75.23 17.78, 91.15 -1.7 M49.49 48.61 C65.23 29.85, 80.47 9.24, 89.82 0 M52.51 47.27 C63.56 35.31, 76.6 22.2, 94.79 0.62 M53.35 48.83 C66.4 33.84, 79.24 17.64, 94.92 0.26 M58.91 48.04 C71.3 32.02, 88.49 13.17, 98.82 1.02 M60.19 47.28 C69.29 35.17, 80.73 24.07, 100.89 0.28 M64.22 46.8 C74.87 36.37, 87.7 21.15, 105.87 0.21 M65.24 47.88 C74.72 34.9, 87.23 22.53, 104.94 1.75 M69.29 47.99 C78.12 37.56, 90.12 27.49, 104.96 6.92 M69.91 46.69 C80.96 35.92, 91.04 24.72, 104.39 7.73 M75.21 46.3 C83.01 42.13, 87.64 31.37, 105.07 13.9 M75.84 47.15 C87.3 35.3, 97.46 20.53, 104.19 14.3 M80.96 47.23 C88.38 38.99, 91.32 32.36, 104.5 21.57 M80.42 48.23 C88.35 38.81, 96.16 29.08, 105.01 20.87 M84.59 49.7 C90.16 39.8, 96.42 35.25, 103.15 27.54 M84.84 47.74 C92.6 38.93, 99.72 32.04, 103.46 27.34 M92.94 46.55 C95.36 42.32, 102.34 34.92, 103.02 33.42 M91.58 48.47 C94.42 43.35, 98.18 40.58, 103.36 31.62 M95.36 47.42 C97.99 46.48, 98.96 43.31, 103.23 38.12 M96.38 47.6 C97.43 45.51, 99.34 44.12, 104.07 38.34" stroke="#ced4da" stroke-width="0.5" fill="none"/><path d="M1.87 -1.13 C39.87 -1.07, 78.93 0.44, 99.93 -1.27 M-0.09 -0.14 C28.75 0.84, 56.29 1, 101.26 0.01 M101.01 -0.45 C100.78 13.75, 102.26 25.84, 101.97 45.01 M101.96 -0.17 C101.31 17.02, 100.63 34.62, 102.16 46.47 M103.05 48.11 C76.25 48.54, 50.77 45.94, 0.39 47.08 M102.23 46.63 C68.52 46.85, 35.69 47.14, 0.36 47.11 M-0.11 45.2 C-1.23 35.06, 0.64 18.59, -1.75 1.87 M-0.7 47.47 C0.05 33.18, -0.26 21.02, -0.66 -0.79" stroke="#000000" stroke-width="1" fill="none"/></g><g stroke-linecap="round" transform="translate(819.1628592354916 689.8319731212796) rotate(0 50.92974417550215 23.474142892020097)"><path d="M0 0 C0 0, 0 0, 0 0 M0 0 C0 0, 0 0, 0 0 M0.51 5.83 C0.35 5.23, 2.03 4.15, 5.01 0.1 M-0.09 6.05 C0.56 4.97, 1.71 3.85, 4.62 0.36 M1.03 11.29 C4.54 7.97, 6.74 4.4, 12.15 -0.45 M-0.52 12.11 C2.02 9.37, 4.1 5.98, 10.92 0.13 M-1.3 18.21 C5.31 14.28, 10.13 8.56, 17.04 2.13 M-1.03 17.66 C4.54 13.18, 8.3 8.6, 15.55 -0.54 M-1.33 23.98 C5.84 19.87, 11.31 14.86, 20.63 0.87 M0.57 24.38 C7.37 16.35, 13.28 9.52, 21.89 -0.4 M-1.14 28.52 C11.67 18.09, 22.82 5.4, 26.29 -1.67 M0.89 30.33 C6.2 23.62, 12.85 15.84, 26.01 -0.26 M1.02 37.72 C7.47 28.92, 11.05 23.13, 31.7 -0.8 M-0.14 37.29 C6.93 28.08, 15.06 19.46, 31.26 -1.04 M1.41 44 C9.38 31.46, 19.14 21.06, 38.33 0.84 M0.93 43.22 C9.99 30.83, 21.13 19.8, 36.43 -0.48 M0.59 47.7 C9.53 37.53, 16.56 27.29, 41.2 1.78 M1.69 48.24 C13.03 34.49, 22.05 23.24, 43.22 -0.96 M7.82 47.06 C14.93 39.54, 20.98 28.38, 46.03 0.34 M6.07 48.35 C14.83 37.34, 23.66 27.16, 48.35 -0.22 M13.6 46.16 C25.34 28.67, 42.58 10.31, 54.94 -0.89 M11.78 47.95 C21.75 35.63, 32.39 24.64, 53 0.79 M18.7 47.6 C26.32 33.61, 39.58 23.33, 59.63 -0.37 M17.15 48.26 C27.35 33.93, 40.28 21.13, 58.9 -0.81 M20.56 49.12 C39.18 30.03, 54.84 10.51, 63.07 -1.15 M22.35 48.49 C33.87 34.78, 46.01 19.57, 63.86 0.33 M27.76 48.42 C45.27 30.61, 59.57 10.24, 68.69 -0.27 M27.79 48.4 C39.07 35.72, 48.68 22.49, 67.79 1.07 M32.48 49.94 C45.63 34.15, 56.44 17.76, 74.08 -0.2 M33.35 47.73 C45.35 32.94, 59.11 18.42, 74.2 -0.05 M39.59 46.21 C53.16 28.32, 71.3 9.39, 80.14 1.75 M37.31 47.14 C50.65 32.26, 65.08 17.27, 80.29 0.44 M43.74 48.39 C53.83 35.87, 67.53 21.04, 84.8 -2.06 M42.35 47.49 C53.59 35.8, 64.07 25.01, 84.44 -0.88 M47.16 46.82 C59.41 36.04, 68.66 28.04, 88.21 1.01 M49.08 48 C64.52 28.84, 81.36 10.49, 90.26 0.95 M52.73 49.64 C67.97 29.71, 79.93 13.54, 94.41 0.4 M54.13 47.52 C62.88 36.15, 72.6 24.84, 96.12 -0.53 M57.77 47.26 C73.27 32.13, 85.31 15.75, 100.53 0.95 M59.58 46.68 C74.46 31.35, 86.85 16.17, 101.15 -0.02 M63.16 47.01 C76.05 31.97, 93.7 14.53, 104.48 1.71 M65.08 47.21 C73.71 36.78, 83.98 24.9, 104.86 2.07 M71.07 45.67 C78.74 34.73, 89.76 23.28, 104.81 7.49 M69.33 48.06 C78.59 36.29, 87.85 27.26, 103.75 7.82 M74.12 48 C83 42.24, 87.26 33.14, 106.29 12.87 M74.14 48.66 C82.42 40.25, 88.46 31.25, 104.79 13.46 M81.06 47.36 C89.49 38.99, 94.73 27.42, 105.27 21.86 M79.95 47.16 C88.18 37.61, 97.33 27.73, 103.59 19.65 M86 48.25 C91.1 42.22, 96.97 32.93, 101.95 25.41 M85.86 47.62 C89.62 42.02, 94.02 36.44, 104.54 26.72 M90.07 46.82 C94.22 44.43, 98.23 37.35, 104.84 32.21 M91.15 48.22 C93.32 44.63, 97.61 40.95, 104.13 32.06 M95.23 48.87 C98.73 44.37, 102.03 41.16, 104.81 38.06 M95.68 48.25 C98.46 45.11, 100.15 43.66, 103.58 38.73" stroke="#ced4da" stroke-width="0.5" fill="none"/><path d="M-1.71 -0.37 C36.51 -0.96, 70.47 2.01, 103.76 0.42 M0.49 0.22 C34.77 0.03, 71.39 0.36, 102.03 -0.7 M100.13 1.06 C103.91 17.72, 100.17 33.73, 101.48 47.49 M102.8 -0.28 C101.81 14.17, 103.12 27.47, 101.25 46.31 M103.22 45.87 C68.49 47.3, 30.22 46.26, 1.77 48.62 M102.09 46.2 C66.35 46.82, 31.77 46.44, 0.07 47.82 M-0.75 48.55 C1.08 37.11, -2.19 25.08, -0.26 -1.67 M1 47.01 C1 36.6, 1.11 27.73, -0.15 -0.61" stroke="#000000" stroke-width="1" fill="none"/></g><g stroke-linecap="round"><g transform="translate(698.8638217396674 680.8936308169117) rotate(0 72.79115182439443 -56.738793375050534)"><path d="M0.46 -0.49 C24.99 -19.15, 122.27 -94.08, 146.35 -112.98 M-0.76 -1.8 C23.78 -20.15, 121.84 -92.88, 145.96 -111.43" stroke="#000000" stroke-width="1" fill="none"/></g><g transform="translate(698.8638217396674 680.8936308169117) rotate(0 72.79115182439443 -56.738793375050534)"><path d="M128.79 -84.5 C133.64 -92.76, 135.83 -98.45, 144.74 -110.55 M128.62 -85.94 C132.4 -91.56, 136.81 -95.98, 145.67 -110.87" stroke="#000000" stroke-width="1" fill="none"/></g><g transform="translate(698.8638217396674 680.8936308169117) rotate(0 72.79115182439443 -56.738793375050534)"><path d="M116.44 -100.89 C123.99 -105.43, 129.01 -107.36, 144.74 -110.55 M116.27 -102.33 C122.52 -104.45, 129.55 -105.39, 145.67 -110.87" stroke="#000000" stroke-width="1" fill="none"/></g></g><g stroke-linecap="round"><g transform="translate(879.3663057906341 680.2071891639029) rotate(0 -0.023007015846701506 -55.0158232737507)"><path d="M0.06 1.18 C0.24 -17.28, 1.34 -91.02, 1.32 -109.65 M-1.36 0.75 C-1.29 -17.5, 0.78 -92.88, 0.82 -111.21" stroke="#000000" stroke-width="1" fill="none"/></g><g transform="translate(879.3663057906341 680.2071891639029) rotate(0 -0.023007015846701506 -55.0158232737507)"><path d="M12.58 -81.43 C9.02 -92.84, 4.31 -101.62, -0.99 -112.77 M9.95 -82.92 C6.33 -94.08, 3.65 -103.8, 0.02 -111.26" stroke="#000000" stroke-width="1" fill="none"/></g><g transform="translate(879.3663057906341 680.2071891639029) rotate(0 -0.023007015846701506 -55.0158232737507)"><path d="M-7.94 -81.76 C-4.93 -93.08, -3.07 -101.76, -0.99 -112.77 M-10.57 -83.26 C-6.62 -94.38, -1.74 -103.98, 0.02 -111.26" stroke="#000000" stroke-width="1" fill="none"/></g></g><g stroke-linecap="round" transform="translate(10 113.4432053338911) rotate(0 79.38729858398438 44.923553466796875)"><path d="M0 0 C0 0, 0 0, 0 0 M0 0 C0 0, 0 0, 0 0 M0.05 5.96 C2.11 5.25, 2.94 2.81, 5.52 -0.4 M-0.16 6.22 C1.8 4.02, 4.1 2.04, 5.36 0.34 M-1.41 11.41 C4.02 9.1, 5.6 6.93, 10.37 -1.33 M0.22 11.94 C2.72 9.53, 5.01 6.86, 10.44 -0.55 M-0.64 17.72 C3.37 14.1, 8.63 7.09, 15.77 2.24 M0.34 18.3 C3.93 11.97, 9.89 7.23, 15.49 0.48 M0.05 24.34 C7.28 15.22, 16.28 7.88, 21.9 -0.52 M0.58 24.84 C7.56 16.04, 13.04 9.82, 21.34 -0.5 M1.1 29.47 C7.73 19.17, 18.01 7.79, 24.59 1.19 M0.72 30.91 C7.05 23.04, 13.78 16.27, 26.03 -0.27 M-0.83 37.43 C10.72 27.12, 20.21 13.92, 30.15 0.8 M-0.19 37.46 C9.54 26.32, 18.79 15.19, 31.18 0.32 M1.17 43.41 C11.6 30.96, 21.7 17.86, 36.48 0.64 M0.55 41.53 C10.08 30.76, 19.19 19.56, 35.92 -0.53 M0.74 48.22 C10.85 37.31, 20.25 25.24, 42.72 0.47 M0.55 49.72 C15.72 30.1, 31.46 10.71, 42.47 0.64 M-0.68 55.59 C17.35 31.86, 35.99 10.54, 46.51 0.08 M-0.71 55.11 C13.4 40.77, 24.53 25.93, 48.12 -0.23 M-0.71 62.8 C19.32 35.81, 40.67 15.92, 53.6 -0.19 M0.04 60.53 C16.52 42.04, 33.02 21.87, 52.82 -0.5 M1.02 65.94 C14.83 52.29, 26.6 37.75, 59.1 -0.85 M-1.16 67.5 C13.18 50.67, 27.94 35.89, 57.16 0.39 M-0.64 74.72 C27.33 41.9, 50.86 15.25, 65.13 1.28 M-0.26 73.71 C21.56 48.54, 41.68 25.84, 63.93 -0.87 M-1.94 81.3 C18.83 56.54, 38.64 36.01, 70.01 -0.36 M-0.84 79.48 C16.99 60.25, 33.5 41.45, 68.14 -0.24 M0.83 83.62 C16.21 67.6, 30.3 48.89, 73.97 -1.5 M-0.29 85.73 C14.6 67.83, 30.88 49.96, 74.57 -0.1 M-0.78 89.17 C22.29 66.52, 42.86 41.63, 80.33 -0.48 M-0.06 91.48 C30.4 56.63, 61.45 20.18, 79.76 -0.03 M6.84 90.56 C24.45 68.17, 46.38 45.3, 85.17 -1.73 M5.47 89.98 C22.82 68.68, 40.68 48.41, 85.59 -0.62 M10.84 91.65 C36.35 58.19, 67.48 26.94, 90.52 -1.12 M12.18 90.57 C31.54 68.68, 49.78 45.48, 89.28 -0.21 M16.64 91.02 C43.02 61.75, 65.67 30.86, 94.07 -1.48 M17.91 90.78 C33.49 71.22, 50.38 51.84, 94.93 -0.7 M22.57 91.85 C43.56 66.86, 64.13 38.78, 102.35 2.01 M22.88 89.86 C45.96 62.84, 71.93 34.76, 101.55 -0.33 M27.55 88.43 C55.99 57.46, 87.23 22.59, 104.4 -1.66 M28.22 89.94 C49.41 66.08, 72.23 39.01, 106.59 0.55 M34.26 90.76 C63.13 58.61, 87.36 26.29, 112.97 -0.7 M33.01 90.31 C54.04 66.07, 73.78 43.97, 111.98 0.71 M36.83 91.09 C64.54 58.06, 91.69 26.79, 117.55 0.74 M38.77 90.61 C59.84 65.63, 80.98 39.28, 117 0.97 M44.07 92.5 C74.32 55.57, 106.11 18.73, 120.84 1.36 M42.57 91.06 C67.49 63.4, 92.71 34.85, 121.58 -0.3 M46.43 92.2 C68.79 66.25, 92.98 37.91, 125.23 -0.39 M48.83 90.41 C75.57 58.79, 104.21 27.99, 126.64 1.29 M54.53 90.35 C80.25 60.89, 102.59 35.13, 131.79 0.91 M53.68 90.42 C77.3 64.12, 100.76 38.5, 131.93 0.1 M59.59 92.87 C80.98 70.39, 97.42 47.89, 139.52 2.28 M58.24 91.35 C89.61 55.58, 119.79 20.46, 137.09 0.69 M62.5 88.75 C89.27 62.04, 113.55 30.45, 144.99 -1.16 M63.51 90.87 C92.21 59.29, 118.2 29.62, 144.17 -0.96 M70.97 92.62 C85.79 71.07, 102.42 55.26, 149.52 0.45 M70.42 91.36 C99.28 58.63, 127.39 24.18, 148.67 0.76 M73.21 89.29 C103.95 54.87, 131.86 21, 154.93 -1.8 M75.33 90.06 C93.67 68.21, 113.38 46.29, 154.06 0.31 M79.18 92.36 C105.4 63.11, 132.02 33.15, 158.65 1.02 M80.06 90.32 C97.46 72.02, 115 51.76, 158.79 -0.75 M86.2 88.72 C106.99 64.78, 126.87 42.24, 160.22 4.23 M85.46 89.81 C103.9 68.94, 122.25 46.58, 159.64 5.43 M92.2 89.18 C108.7 67.96, 128.25 48.37, 160.19 12.08 M91.4 91.76 C113.13 64.46, 137.43 36.77, 158.43 13.18 M97.37 88.96 C109.74 73.59, 123.99 57.99, 159.4 19.05 M96.32 91.13 C114.19 69.65, 131.8 49.13, 158.17 19.3 M101.35 90.31 C123.26 66.47, 144.7 42.41, 158.75 24.74 M101.27 89.88 C117.84 71.51, 135.8 50.5, 158.63 23.57 M108.95 91.06 C120.4 78.42, 131.09 63.56, 159.58 32.63 M107.41 91.17 C125.25 69.99, 144.56 46.41, 159.65 30.18 M111.3 91.15 C131.25 71.69, 149.04 47.15, 160.79 35.36 M112.08 90.57 C128.66 70.95, 146.05 52.34, 160.02 36.7 M119.55 89.24 C130.35 78.41, 138.72 65.51, 159.97 41.38 M118.29 90.28 C130.22 75.89, 142.98 61.15, 159.5 43.32 M122.06 89.24 C133.93 75.17, 145.02 61.56, 158.46 48.19 M122.81 90.37 C133.03 79.86, 143.94 67.4, 157.67 49.78 M130.08 88.87 C135.99 81.67, 139.8 74.64, 157.8 53.15 M127.62 90.97 C135.32 80.78, 143.07 72.51, 159.32 54.88 M134.96 90.28 C142.21 82.13, 150.36 69.48, 158.21 62.37 M134.02 91.51 C143.49 79.04, 152.84 68.84, 158.68 60.92 M137.82 88.5 C142.61 84.61, 150.91 77.19, 157.64 65.91 M138.12 90.92 C146.56 80.86, 154.22 71.77, 159.33 67.69 M142.72 90.13 C147.54 86.72, 151.95 80.29, 158.9 74.47 M142.86 90.88 C147.8 86.16, 151.24 82.08, 159.25 72.66 M150.12 89.92 C151.43 87.07, 153.55 83.93, 157.33 78.89 M149.56 90.05 C153.71 86.42, 157.15 82.5, 158.66 79.19 M154.79 89.95 C156.16 89.44, 157.01 88.12, 159.52 85.34 M154.33 90.73 C155.48 89.39, 156.07 88.29, 158.81 85.52" stroke="#82c91e" stroke-width="0.5" fill="none"/><path d="M-1.8 1.81 C61.42 -0.68, 124.07 1.16, 160.27 -0.16 M-0.71 -0.86 C43.21 -0.06, 88.02 1.48, 158.83 -0.63 M158.78 -1.61 C159.57 25.11, 157.3 51.24, 158.28 91.32 M159.53 0.54 C158.44 32.02, 158.37 65.5, 158.18 90.31 M160.55 90.64 C116.93 90.01, 78.88 92.34, 0.9 89.64 M158.74 90.2 C109.54 91.24, 59.48 92.01, -0.9 90.04 M-0.15 87.97 C-2.01 55.51, -0.32 22.36, -0.55 0.3 M-0.23 89.77 C-0.95 61.91, -1.33 32.71, 0.19 -0.93" stroke="#000000" stroke-width="1" fill="none"/></g><g transform="translate(38.887298583984375 145.866758800688) rotate(0 52.5 12)"><text x="52.5" y="19" font-family="Cascadia, Segoe UI Emoji" font-size="20px" fill="#000000" text-anchor="middle" style="white-space: pre;" direction="ltr">ERC20.sol</text></g><g stroke-linecap="round" transform="translate(1109.3518938337056 209.10179594720037) rotate(0 40.231327601841485 22.76603724775387)"><path d="M0 0 C0 0, 0 0, 0 0 M0 0 C0 0, 0 0, 0 0 M0.19 6.85 C1.43 5.42, 3.03 2.98, 4.42 0.1 M-0.3 6.2 C1.01 4.67, 2.08 3.54, 4.87 0.37 M-1.46 13.05 C2.51 7.35, 7.45 4.79, 9.51 0.77 M-0.37 11.38 C2.51 8.47, 4.9 5.47, 11.19 -0.78 M0.38 18.6 C4.2 15.2, 8.77 12.19, 15.26 0.89 M-0.42 19.02 C6.44 10.85, 11.38 5.67, 16.49 1.03 M0.02 23.53 C3.41 20.98, 8.34 13.29, 19.53 -1.25 M-0.51 23.62 C7.46 17.51, 13.88 8.39, 21.94 -0.07 M0.27 32.17 C7.34 23.44, 15.77 12.16, 25.78 -0.24 M-0.02 31.09 C8.89 19.7, 19.58 7.83, 26.53 0.65 M0.37 35.73 C7.55 26.46, 17.02 17.13, 31.49 -0.55 M-1.22 36.34 C9.08 26.91, 17.3 18.1, 31.68 0.7 M0.1 41.25 C11.82 28.57, 26.57 12.58, 35.13 2.13 M0.77 42.61 C10.59 29.62, 23.33 15.33, 37.36 0.46 M0.37 48.05 C12.08 32.62, 23.56 19.68, 43.99 1.3 M1.29 45.77 C12.34 35.08, 21.73 24.25, 41.55 0.47 M7.13 48.65 C17.58 33.88, 33.58 19.26, 49.48 2.13 M7.59 46.09 C16.79 35.98, 26.14 24.88, 48.22 -0.26 M13.97 47.98 C20.96 34.01, 31.26 26.29, 55 -2.15 M12.22 47.32 C24.45 33.38, 36.55 18.92, 52.77 -1.04 M18.63 47.06 C29.95 34.78, 38.86 19.79, 59.17 0.25 M17.08 47.19 C28.19 36.05, 37.78 24.74, 58.03 0.86 M24.85 45.93 C38.01 29.1, 52.61 14.73, 63.69 0.04 M24.01 46.13 C33.98 34.97, 45.86 21.41, 63.71 -0.57 M27.69 48.07 C44.64 29.3, 58.12 13.15, 68.67 1.35 M27.73 46.65 C42.24 30.09, 57.25 12.55, 68.37 0.26 M34.7 47.62 C47.42 29.81, 65.74 10.26, 76.38 -1.89 M33.66 46.32 C46.95 31.46, 62.25 12.85, 74.9 -0.24 M38.5 46.05 C49.43 31.24, 63.19 20.27, 78.62 0.58 M38.16 47.28 C52.19 32.32, 64.77 18.17, 78.49 -0.52 M43.36 46.85 C55.83 35.48, 65.64 22.01, 82.56 1.94 M43.79 46.85 C56.66 33.29, 68.79 18.57, 82.1 1.64 M48.4 48.73 C58.63 38.51, 68.42 28.22, 84.62 9.78 M50.12 47.46 C60.78 33.44, 72.68 18.93, 83.1 8.4 M54.85 48.03 C66.69 36.75, 74.68 22.11, 82.29 14 M53.73 47.01 C60.56 39.57, 66.17 33.19, 82.63 14.63 M61.89 47.18 C63.84 39.01, 70.4 33.43, 81.54 22.29 M59.59 46.12 C64.31 41.33, 69.53 34.39, 83.73 21.19 M65.98 49.14 C69.26 41.62, 75.52 36.06, 83.24 25.55 M65.14 46.42 C72.09 39.97, 78.56 31.35, 83.42 27.27 M68.73 45.86 C73.15 43.91, 75.84 42.11, 81.84 32.54 M69.72 45.86 C74.55 41.42, 78.97 37.47, 83.89 32.82 M75.68 47.91 C76.94 43.83, 79.71 42.63, 82.18 38.77 M76.01 46.95 C78.5 44.02, 80.78 41.5, 82.92 38.51" stroke="#82c91e" stroke-width="0.5" fill="none"/><path d="M-1 1.79 C26.97 -0.24, 57.84 1.39, 79.05 -1.03 M0.37 0.19 C23.59 0.29, 47.56 -0.28, 81.22 -0.01 M79.46 1.25 C81.65 15.81, 79.64 31.15, 80.04 45.98 M80.3 0.21 C80.6 14.99, 80.1 29.03, 79.61 44.63 M79.59 44.03 C47.75 46.99, 16.26 47.71, 0.72 47.48 M80.85 46.49 C51.71 45.19, 21.12 46, 0.83 44.78 M1.71 44.46 C1.94 25.8, -1.45 8.69, 0.45 0.34 M0.8 45.03 C0.61 27.73, 0.87 9.62, -0.13 0.16" stroke="#000000" stroke-width="1" fill="none"/></g><g transform="translate(1203.1315612792973 223.08059111095585) rotate(0 94.5 12.5)"><text x="0" y="18" font-family="Virgil, Segoe UI Emoji" font-size="20px" fill="#000000" text-anchor="start" style="white-space: pre;" direction="ltr">External contracts</text></g><g stroke-linecap="round" transform="translate(1112.057610648019 273.8362823788269) rotate(0 40.231327601841485 22.76603724775387)"><path d="M0 0 C0 0, 0 0, 0 0 M0 0 C0 0, 0 0, 0 0 M-0.24 6.72 C2.16 4.52, 4.35 2.17, 4.45 0.35 M0.09 6.08 C1 4.73, 2.94 2.69, 5.06 0.05 M1.58 12.56 C4.13 8.03, 5.49 7.01, 11.08 -0.03 M0.77 11.92 C2.18 9.61, 4.7 6.5, 11.12 0.65 M-0.66 17.62 C2.16 16.15, 4.39 11.08, 14.27 0.17 M0.16 17.84 C3.92 11.87, 10.25 6.73, 16.61 -0.38 M1.21 24.14 C4.19 18.3, 8.55 15.05, 20.8 -1.79 M-0.61 24.29 C6.8 15.61, 14.77 8.88, 21.88 0.64 M-1.4 29.04 C10.65 17.9, 18.05 10.72, 26.47 -0.9 M0.13 30.29 C10.43 18.63, 20.45 6.26, 25.64 -0.35 M1.42 37.05 C12.52 22.47, 23.95 11.71, 30.42 -1.93 M-0.85 35.99 C8 28.56, 14.42 19.91, 30.93 0.79 M-1.07 43.65 C10.98 30.43, 18.09 20.5, 38.42 1.22 M-0.16 42.18 C13.7 26.97, 28.06 11.53, 36.31 0.78 M0.15 45.65 C17.64 26.7, 33.67 9.47, 42.62 0.01 M2.45 46.43 C17.31 30.04, 32.81 10.75, 42.35 0.12 M5.63 48.24 C16.58 37.62, 21.67 25.82, 48.65 -0.16 M6.72 46.87 C14.76 38.65, 22.81 27.52, 46.71 -0.66 M13.97 46.31 C24.22 31.57, 38.36 19.72, 51.37 -1.37 M12.23 47.17 C27.79 28.33, 42.93 10.81, 52.63 0.16 M18.15 46.3 C34.34 28.46, 50.4 9.94, 58.02 -0.63 M17.6 46.97 C32.78 29.7, 49 10.71, 58.01 -0.2 M23.33 47.15 C40.29 26.95, 53.85 8.54, 63.95 0.7 M24.07 46.58 C30.63 38.06, 40.09 27.47, 63.89 0.09 M27.96 47 C38.63 35.94, 48.87 21.07, 67.75 1.43 M27.57 46.26 C41 33.27, 52.62 20, 69.49 -0.19 M32.91 48.4 C44.96 30.8, 59.02 18.51, 74.99 -0.86 M33.53 47.12 C42.19 37.1, 51.3 26.55, 74.78 -0.22 M37.82 45.15 C51.6 33.33, 62.45 16.63, 81.38 -1.25 M38.25 46.66 C50.02 33.07, 60.37 19.79, 79.47 -0.81 M43.7 47.16 C52.12 37.58, 57.98 27.54, 82.5 1.3 M43.19 47.18 C55.11 34.37, 64.82 21.02, 83.6 1.02 M47.84 47.69 C59.58 37.79, 67.69 27.48, 83.6 9.55 M48.83 47.77 C61.36 33.44, 71.39 19.98, 83.16 9.26 M55.07 47.98 C62.38 37.58, 71.88 26.35, 83.23 13.96 M53.73 46.55 C64.11 35.58, 73.5 24.3, 82.6 13.57 M61.44 47.74 C68.3 36.47, 75.81 28.43, 84.58 22.36 M59.06 45.85 C64.97 39.54, 72.56 32.61, 81.97 20.63 M65.39 45.79 C70.81 39.56, 75.37 35.74, 81.74 27.45 M65.6 46.48 C72.54 40.07, 79.32 31.56, 82.08 26.25 M71.39 46.57 C75.44 42.25, 79.96 35.81, 82.24 31.67 M70.31 46.86 C73.42 43.44, 77.71 40.05, 82.79 31.92 M76.57 48.01 C77.51 44.69, 80.82 41.75, 83.09 38.29 M75.43 47.27 C77.54 44.64, 79.97 41.99, 82.54 38.45" stroke="#7950f2" stroke-width="0.5" fill="none"/><path d="M-1.88 -1.99 C27.56 -0.39, 56.19 2.07, 82.18 0.73 M0.08 0.67 C25.01 -1, 51.36 0.34, 79.88 -0.09 M81.97 -0.77 C82.07 15.23, 81.07 32.94, 80.85 44.26 M80.56 0.8 C80.66 17.43, 80.6 35.62, 80.16 45.83 M81.31 47.27 C50.78 42.98, 23.23 43.68, 0.88 46.83 M81 45.38 C61.98 45.17, 40.77 44.32, -0.99 45.65 M-1.7 44.98 C1.53 29.14, 1.73 10.95, 0.4 -1.8 M-0.8 46.16 C-0.08 27.79, 0.26 9.15, 0.05 0.15" stroke="#000000" stroke-width="1" fill="none"/></g><g transform="translate(1205.837278093611 288.14161562851996) rotate(0 89.5 12.5)"><text x="0" y="18" font-family="Virgil, Segoe UI Emoji" font-size="20px" fill="#000000" text-anchor="start" style="white-space: pre;" direction="ltr">Wombat contracts</text></g><g stroke-linecap="round" transform="translate(12.1107264927453 334.2469075520831) rotate(0 79.38729858398438 44.92355346679689)"><path d="M0 0 C0 0, 0 0, 0 0 M0 0 C0 0, 0 0, 0 0 M-0.43 6.21 C0.83 4.02, 2.51 3.18, 4.89 -0.2 M-0.46 6.48 C2.13 3.76, 3.4 1.49, 4.65 0 M0.34 10.73 C3.11 7.57, 6.72 5.3, 11.13 -0.75 M-0.64 12.09 C1.97 9.66, 5.48 6.73, 10.22 0.02 M0.33 19.09 C5.26 12.47, 9.49 10.37, 14.56 1.95 M-0.99 18.67 C2.83 14.59, 6.82 11.42, 15.31 -0.66 M1.63 24.18 C6.06 15.05, 15.97 4.81, 22.31 -0.5 M0.35 23.24 C4.16 18.69, 10.01 11.32, 22.13 -0.67 M1.56 30.6 C5.69 20.12, 13.42 12.84, 24.82 -0.59 M-0.79 31.4 C9.98 18.33, 19.12 8.74, 25.97 0.58 M-0.78 35.25 C8.64 25.79, 17.9 18.57, 32.86 1.66 M-0.07 37.35 C10.82 24.29, 20.97 12.81, 32.7 0.43 M1.96 43.86 C11.44 29, 22.39 17.76, 38.74 1.16 M-0.51 42.33 C10.67 29.12, 23.33 14.92, 36.75 0.34 M1.85 49.8 C16.58 29.99, 34.34 9.76, 42.07 0.21 M0.79 48.16 C12.25 34.15, 25.54 20.22, 42.61 -0.04 M0.78 55.38 C14.11 42.12, 23.38 27.65, 46.89 -0.82 M-0.42 54.13 C14.56 39.39, 27.19 22.35, 46.86 0.46 M-0.45 62.44 C16.67 40.47, 36.87 18.67, 51.42 0.97 M0.42 60.3 C13.25 46.31, 26.98 29.53, 53.72 0.69 M-1.02 65.62 C13.56 50.41, 27.62 31.31, 57.18 1.63 M-0.37 66.41 C16.72 46.89, 34.41 26.91, 59.07 0.44 M0.35 71.2 C15.3 55.52, 29.81 35.54, 62.75 -1.1 M0.54 73.35 C14.36 56.56, 28.96 40.17, 63.98 0.61 M-0.15 77.91 C15.55 60.03, 35.01 39.61, 68.88 -1.21 M-0.16 79.69 C21.99 52.89, 45.92 26.59, 68.75 0.47 M-0.36 84.24 C17.9 63.44, 35.42 44.79, 76.24 0.12 M-0.57 85.55 C27.02 53.66, 56.17 20.6, 74.42 -0.16 M-0.31 92.24 C16.65 70.65, 34.68 54.18, 78.57 1.12 M0.16 90.17 C27.42 61.1, 52.17 33.41, 78.84 0.37 M8.05 91.09 C36.17 55.79, 62.95 26.03, 84.41 -0.08 M6.89 90.01 C33.44 59.01, 59.71 28.26, 84.14 -0.3 M12.32 91.22 C34.36 66.3, 52.33 43.87, 90.22 1.22 M11.82 90.65 C41.77 56.23, 71.23 20.59, 90.84 0.69 M16.34 91.77 C36.13 64.86, 57.66 42.63, 94.12 0.75 M16.06 90.82 C42.74 59.52, 68.43 30.97, 95.32 -0.34 M22.9 90.47 C40.12 73.19, 54.25 52.36, 101.09 -0.12 M22.1 90 C51.7 56.11, 83.47 20.4, 99.86 -0.4 M29.33 90.18 C53.01 61.49, 75.37 30.67, 104.6 -1.82 M28.36 89.53 C46.59 69.25, 64.53 48.42, 106.21 0.37 M30.76 91.46 C48.92 70.41, 69 49.66, 111.84 0 M32.19 90.93 C63.14 53.68, 95.83 16.83, 111.57 -0.03 M39.77 91.13 C58.01 66.95, 80.98 38.79, 116.74 -0.27 M38.42 91.05 C57.81 66.13, 77.87 41.53, 115.5 -0.58 M41.59 90.82 C61.81 65.58, 85.03 42.16, 120.43 0.66 M42.37 90.32 C58.56 72.43, 74.99 54.52, 121.22 0.33 M49.12 92.32 C64.79 71.71, 83.79 51.08, 125.74 -0.21 M47.76 90.73 C75.45 59.42, 102.55 28.42, 125.91 1.29 M53.4 90.33 C77.45 61.47, 106.03 30.23, 132.19 -0.89 M52.99 90.25 C85.61 53.82, 116.67 18.59, 132.63 -0.11 M60.12 91.35 C74.01 74.01, 92.65 50.95, 139.19 2.19 M58.46 90.34 C86.26 58.19, 114.2 27.66, 137.28 0.91 M62.57 90.93 C84.19 67.81, 99.24 49.06, 141.77 0.73 M63.47 90.93 C88.47 61.14, 113.62 32.67, 143.21 -0.47 M70.91 92.25 C91.22 66.97, 111.77 43.23, 149.69 -0.86 M70.22 91.58 C86.35 70.85, 103.34 48.81, 148.18 -0.39 M73.8 90.71 C100.34 56.69, 130.74 28.7, 155.18 1.07 M75.34 89.76 C97.7 65.56, 120.56 38.65, 152.95 0.81 M79.63 92.44 C111.14 56.7, 139.94 20.21, 160.15 2.01 M79.94 90.06 C101.37 65.46, 124.25 40.51, 158.26 0.9 M86.15 90.92 C109.97 63.48, 133.23 34.68, 158.54 5.86 M85.16 90.34 C112.97 59.09, 140.59 27.61, 160.16 4.97 M89.74 89.5 C108.23 70.27, 123.14 51.59, 159.35 11.42 M90.14 91.05 C109.99 70.05, 128.83 47.49, 158.74 11.55 M95.02 89.97 C118.75 65.75, 142.79 38.22, 157.87 17.74 M95.61 89.38 C111.05 72.28, 127.1 53.94, 158.32 18.67 M100.07 91.15 C121.27 64.25, 146.52 39.76, 159.41 22.97 M101.89 90.52 C123.22 65.58, 145.51 40.37, 158.94 24.33 M106.14 89.42 C121.93 70.3, 140.36 51.71, 159.77 31.16 M106.43 89.83 C123.3 73.76, 138.44 55.79, 159.72 29.93 M110.78 89.3 C121.38 77.76, 132.61 68.08, 158.29 37.52 M111.84 90.1 C130.96 68.88, 148.94 47.9, 159.73 37.27 M117.6 92 C133.91 73.14, 149.48 54.6, 158.98 43.05 M117.43 89.76 C130.94 75.75, 145.6 60.57, 158 43.74 M121.39 89.99 C136.32 76.85, 150.01 59.12, 159.63 47.81 M123.24 90.09 C134.11 78.25, 144.16 66.82, 158.41 49.32 M129.84 91.57 C136.32 81.38, 144.46 69.65, 160.21 53.73 M127.53 89.44 C135.98 81.04, 143.75 71.03, 159.02 54.01 M132.73 91.42 C142.32 78.43, 150.44 67.82, 157.4 61.49 M132.89 90.46 C140.71 81.35, 149.29 72.03, 158.35 60.35 M139.62 91.17 C146.07 83.16, 153.17 74.04, 159.55 65.71 M139.69 90.3 C144.55 83.6, 149.33 78.85, 159.26 67.33 M145.01 89.96 C149.41 85.87, 156.72 78.04, 157.93 71.63 M144.18 89.85 C148.48 86.33, 152.04 79.65, 157.99 72.65 M149.89 89.35 C152.52 85.9, 155.51 83.82, 158.02 78.75 M149.83 90.02 C152.23 86.92, 156.3 82.25, 158.25 78.98 M154.93 90.4 C154.89 88.62, 156.21 88.67, 159.59 84.73 M154.34 90.57 C155.52 89.07, 157.04 87.44, 158.89 85.16" stroke="#7950f2" stroke-width="0.5" fill="none"/><path d="M1.74 1.64 C57.23 1.06, 112.54 0.91, 156.84 -1.1 M0.33 0.97 C48.18 -1.62, 96.13 -1.03, 158.68 0.24 M159.28 0.68 C157.2 35.27, 156.49 68.79, 157.26 89.25 M158.14 0.01 C159.67 35.37, 159.07 69.34, 159.75 89.98 M159.22 90.29 C97.68 90.9, 39.97 87.88, 1.43 90.38 M159.56 88.86 C115.48 88.47, 71.8 89.38, 0.6 89.02 M-1.66 90.42 C0.33 62.31, -0.86 29.17, -0.89 0.36 M-0.25 89.37 C0.73 58.42, -0.88 27.66, -0.92 -0.91" stroke="#000000" stroke-width="1" fill="none"/></g><g transform="translate(26.548719133649342 368.6296895345049) rotate(0 64.5 12)"><text x="64.5" y="19" font-family="Cascadia, Segoe UI Emoji" font-size="20px" fill="#000000" text-anchor="middle" style="white-space: pre;" direction="ltr">Account.sol</text></g><g transform="translate(13.43732997349315 441.14721534365685) rotate(0 91.5 20)"><text x="0" y="14" font-family="Virgil, Segoe UI Emoji" font-size="16px" fill="#5f3dc4" text-anchor="start" style="white-space: pre;" direction="ltr">Group assets together</text><text x="0" y="34" font-family="Virgil, Segoe UI Emoji" font-size="16px" fill="#5f3dc4" text-anchor="start" style="white-space: pre;" direction="ltr">for identification</text></g><g transform="translate(890.0322832380026 658.7702883765809) rotate(0 46 9.000000000000028)"><text x="0" y="14" font-family="Helvetica, Segoe UI Emoji" font-size="16px" fill="#000000" text-anchor="start" style="white-space: pre;" direction="ltr">maths library</text></g><g transform="translate(10.486689976283174 212.45432681129063) rotate(0 106 10)"><text x="0" y="14" font-family="Virgil, Segoe UI Emoji" font-size="16px" fill="#000000" text-anchor="start" style="white-space: pre;" direction="ltr">e.g. BUSD, USDC, BUSD-T</text></g><g transform="translate(389.3760681152343 332.12212117513) rotate(0 91.49999999999997 40)"><text x="0" y="14" font-family="Virgil, Segoe UI Emoji" font-size="16px" fill="#5f3dc4" text-anchor="start" style="white-space: pre;" direction="ltr">Represents asset in </text><text x="0" y="34" font-family="Virgil, Segoe UI Emoji" font-size="16px" fill="#5f3dc4" text-anchor="start" style="white-space: pre;" direction="ltr">a pool, mints and burns</text><text x="0" y="54" font-family="Virgil, Segoe UI Emoji" font-size="16px" fill="#5f3dc4" text-anchor="start" style="white-space: pre;" direction="ltr">LP tokens for deposits</text><text x="0" y="74" font-family="Virgil, Segoe UI Emoji" font-size="16px" fill="#5f3dc4" text-anchor="start" style="white-space: pre;" direction="ltr">or withdrawals</text></g><g stroke-linecap="round"><g transform="translate(177.61060878208696 375.5296946419729) rotate(0 95.83543253650892 -44.18285787004346)"><path d="M0.03 -0.48 C32.35 -15.29, 160.76 -73.52, 193.08 -87.88 M-1.41 -1.78 C30.85 -16.49, 159.73 -72.02, 192.27 -86.48" stroke="#000000" stroke-width="1" fill="none"/></g><g transform="translate(177.61060878208696 375.5296946419729) rotate(0 95.83543253650892 -44.18285787004346)"><path d="M169.74 -65.38 C174.91 -68.66, 181.88 -76.34, 191.97 -85.47 M170.25 -66.74 C178.12 -73.06, 184.41 -79.58, 191.62 -87.04" stroke="#000000" stroke-width="1" fill="none"/></g><g transform="translate(177.61060878208696 375.5296946419729) rotate(0 95.83543253650892 -44.18285787004346)"><path d="M161.52 -84.18 C168.72 -83.17, 177.56 -86.56, 191.97 -85.47 M162.03 -85.54 C172.62 -85.94, 181.5 -86.52, 191.62 -87.04" stroke="#000000" stroke-width="1" fill="none"/></g></g><g transform="translate(226.59997122628334 351.6533275785898) rotate(0 48 9)"><text x="0" y="14" font-family="Helvetica, Segoe UI Emoji" font-size="16px" fill="#000000" text-anchor="start" style="white-space: pre;" direction="ltr">address input</text></g><g stroke-linecap="round"><g transform="translate(829.8206099265885 190.7524629497151) rotate(0 -139.9679174829472 45.63784009210263)"><path d="M1.06 0.14 C-45.62 15.37, -233.68 76.93, -280.6 92.1 M0.16 -0.83 C-46.54 13.95, -234.2 74.6, -281 90.09" stroke="#000000" stroke-width="1" fill="none"/></g><g transform="translate(829.8206099265885 190.7524629497151) rotate(0 -139.9679174829472 45.63784009210263)"><path d="M-257.14 73.35 C-262.95 78.47, -270.51 81.63, -281.35 91.05 M-257.65 72.5 C-267.51 78.96, -275.21 85.37, -280.76 90.92" stroke="#000000" stroke-width="1" fill="none"/></g><g transform="translate(829.8206099265885 190.7524629497151) rotate(0 -139.9679174829472 45.63784009210263)"><path d="M-250.78 92.86 C-258.33 93.06, -267.51 91.24, -281.35 91.05 M-251.28 92.01 C-263.46 90.86, -273.66 89.6, -280.76 90.92" stroke="#000000" stroke-width="1" fill="none"/></g></g><g transform="translate(539.832035609654 467.90143548874585) rotate(0 90.5 27)"><text x="0" y="14" font-family="Helvetica, Segoe UI Emoji" font-size="16px" fill="#000000" text-anchor="start" style="white-space: pre;" direction="ltr">grants pool access for </text><text x="0" y="32" font-family="Helvetica, Segoe UI Emoji" font-size="16px" fill="#000000" text-anchor="start" style="white-space: pre;" direction="ltr">issuing ERC20 transfers, </text><text x="0" y="50" font-family="Helvetica, Segoe UI Emoji" font-size="16px" fill="#000000" text-anchor="start" style="white-space: pre;" direction="ltr">LP token operations</text></g><g stroke-linecap="round"><g transform="translate(590.4178500723094 376.84055317797) rotate(0 95.88536576803602 67.10413800200855)"><path d="M-1.09 -1.03 C31.02 21.25, 160.52 111.56, 192.86 134.27 M0.54 1.05 C32.43 23.39, 159.72 112.66, 191.62 135.24" stroke="#000000" stroke-width="1" fill="none"/></g><g transform="translate(590.4178500723094 376.84055317797) rotate(0 95.88536576803602 67.10413800200855)"><path d="M160.95 126.49 C170.03 129.38, 180.82 131.53, 191.55 135.98 M163.19 127.28 C171.2 129.39, 177.57 132.15, 191.17 135.18" stroke="#000000" stroke-width="1" fill="none"/></g><g transform="translate(590.4178500723094 376.84055317797) rotate(0 95.88536576803602 67.10413800200855)"><path d="M172.77 109.71 C178.19 117.8, 185.25 125.25, 191.55 135.98 M175 110.5 C179.63 117.2, 182.78 124.53, 191.17 135.18" stroke="#000000" stroke-width="1" fill="none"/></g></g><g stroke-linecap="round" transform="translate(762.347109113421 284.4052371070495) rotate(0 45 18)"><path d="M0.24 -1.69 L90.2 0.29 L89.02 35.7 L-1.25 37.08" stroke="none" stroke-width="0" fill="#ced4da"/><path d="M0.45 1.53 C23.91 0.31, 46.78 1.51, 91.6 -0.62 M-0.89 -0.49 C32.11 1.22, 64.77 -0.25, 90.25 -0.55 M88.26 -1.49 C91.84 9.48, 90.73 18.31, 88.78 37.9 M89.86 0.29 C90.64 10.83, 90.2 20.71, 89.75 36.57 M88.01 36.42 C63.15 34.28, 36.71 36.2, 1.29 34.02 M89.11 36.85 C54.94 36.51, 18.83 36.67, 0.45 35.51 M1.69 37.24 C-1.63 27.24, 0.77 16.07, 0.85 -1.2 M-0.9 36.65 C0.62 27.18, -0.06 17.08, 0.07 -0.96" stroke="#000000" stroke-width="1" fill="none"/></g><g transform="translate(771.347109113421 289.67666044689327) rotate(0 37 12.5)"><text x="37" y="18" font-family="Virgil, Segoe UI Emoji" font-size="20px" fill="#000000" text-anchor="middle" style="white-space: pre;" direction="ltr">Deposit</text></g><g stroke-linecap="round" transform="translate(931.1036071777344 285.90726870582193) rotate(0 44.99999999999994 18)"><path d="M1.67 -1.9 L90.23 0.28 L91.51 36.52 L1.13 35.9" stroke="none" stroke-width="0" fill="#ced4da"/><path d="M-1.71 -1.53 C26.97 -0.35, 54.16 1.73, 90.02 -0.57 M0.65 -0.86 C25.55 -0.86, 51.08 -0.95, 90.17 0.24 M88.93 0.59 C91.34 12.59, 92.3 20.19, 90.18 37.59 M90.96 0.58 C89.84 11.61, 89.41 24.84, 89.6 36.93 M89.04 37.77 C61.53 33.76, 32.2 34.41, 0.23 34.9 M89.06 36.46 C67.72 34.89, 47.25 34.9, -0.68 35.28 M-0.66 34.97 C0.65 22.2, 1.95 10.91, 0.85 -1.79 M-0.99 36.8 C-0.56 26.45, -0.53 17.2, 0.28 -0.26" stroke="#000000" stroke-width="1" fill="none"/></g><g transform="translate(934.1036071777344 291.1786920456657) rotate(0 42.99999999999994 12.5)"><text x="43" y="18" font-family="Virgil, Segoe UI Emoji" font-size="20px" fill="#000000" text-anchor="middle" style="white-space: pre;" direction="ltr">Withdraw</text></g><g stroke-linecap="round"><g transform="translate(815.6692181027865 333.2846270608277) rotate(0 24.33155707193265 66.4797735976722)"><path d="M0.34 -0.31 C8.68 21.93, 41.54 111.02, 49.61 133.54 M-0.94 -1.52 C7.36 20.82, 41.02 111.52, 49.19 134.48" stroke="#000000" stroke-width="1" fill="none"/></g><g transform="translate(815.6692181027865 333.2846270608277) rotate(0 24.33155707193265 66.4797735976722)"><path d="M29.37 113.18 C33.11 117.76, 40.39 125.11, 49.71 135.61 M29.81 111.98 C34.84 118.41, 41.75 125.45, 49.59 134" stroke="#000000" stroke-width="1" fill="none"/></g><g transform="translate(815.6692181027865 333.2846270608277) rotate(0 24.33155707193265 66.4797735976722)"><path d="M48.65 106.16 C47.3 112.64, 49.48 121.85, 49.71 135.61 M49.09 104.95 C48.5 113.49, 49.71 122.61, 49.59 134" stroke="#000000" stroke-width="1" fill="none"/></g></g><g transform="translate(595.5099618094308 185.7797226678755) rotate(0 66 18)"><text x="0" y="14" font-family="Helvetica, Segoe UI Emoji" font-size="16px" fill="#000000" text-anchor="start" style="white-space: pre;" direction="ltr">ERC20 allowance </text><text x="0" y="32" font-family="Helvetica, Segoe UI Emoji" font-size="16px" fill="#000000" text-anchor="start" style="white-space: pre;" direction="ltr">for transferFrom</text></g><g stroke-linecap="round"><g transform="translate(178.80528477260032 166.19159662155863) rotate(0 94.58489763881347 43.850226747269865)"><path d="M-0.19 0.83 C31.22 15.54, 157.07 73.31, 188.66 87.48 M-1.75 0.22 C30.02 14.7, 159.21 71.52, 190.92 85.99" stroke="#000000" stroke-width="1" fill="none"/></g><g transform="translate(178.80528477260032 166.19159662155863) rotate(0 94.58489763881347 43.850226747269865)"><path d="M162.38 82.41 C172.42 84.28, 179.21 85.81, 192.04 85.53 M160.19 83.26 C168.51 83.5, 175.81 84.16, 190.85 85.72" stroke="#000000" stroke-width="1" fill="none"/></g><g transform="translate(178.80528477260032 166.19159662155863) rotate(0 94.58489763881347 43.850226747269865)"><path d="M170.75 63.68 C178.03 71.45, 182.17 78.89, 192.04 85.53 M168.57 64.53 C174.94 69.17, 180.27 74.27, 190.85 85.72" stroke="#000000" stroke-width="1" fill="none"/></g></g><g transform="translate(231.78812517438604 168.01910255068807) rotate(0 48 9)"><text x="0" y="14" font-family="Helvetica, Segoe UI Emoji" font-size="16px" fill="#000000" text-anchor="start" style="white-space: pre;" direction="ltr">address input</text></g><g transform="translate(953.3872898646769 360.8728681291851) rotate(0 57.49999999999994 9)"><text x="0" y="14" font-family="Helvetica, Segoe UI Emoji" font-size="16px" fill="#000000" text-anchor="start" style="white-space: pre;" direction="ltr">dapp main entry</text></g><g stroke-linecap="round"><g transform="translate(964.3997558417103 326.21563284737715) rotate(0 -29.554171116898203 71.63456234782136)"><path d="M-0.44 0.37 C-10.62 24.14, -49.82 119.94, -59.92 143.75 M1.53 -0.48 C-8.87 23.44, -50.04 117.75, -60.64 141.91" stroke="#000000" stroke-width="1" fill="none"/></g><g transform="translate(964.3997558417103 326.21563284737715) rotate(0 -29.554171116898203 71.63456234782136)"><path d="M-58.12 112.68 C-58.3 122.82, -59.97 137.17, -60.47 142.79 M-58.54 111.7 C-58.45 121.75, -60.8 132.93, -60.17 141.83" stroke="#000000" stroke-width="1" fill="none"/></g><g transform="translate(964.3997558417103 326.21563284737715) rotate(0 -29.554171116898203 71.63456234782136)"><path d="M-39.32 120.91 C-47.07 127.7, -56.23 138.77, -60.47 142.79 M-39.74 119.92 C-46.39 126.88, -55.47 135.12, -60.17 141.83" stroke="#000000" stroke-width="1" fill="none"/></g></g><g stroke-linecap="round"><g transform="translate(893.346818872882 276.4728785923548) rotate(0 -3.4501085980668904 95.36522940020342)"><path d="M1.05 -0.43 C-0.26 31.6, -5.65 160.58, -7.17 192.44 M0.14 -1.71 C-1.36 30.01, -6.4 158.68, -7.95 190.91" stroke="#000000" stroke-width="1" fill="none"/></g><g transform="translate(893.346818872882 276.4728785923548) rotate(0 -3.4501085980668904 95.36522940020342)"><path d="M-17.71 162.84 C-11.83 171.4, -11.55 182.47, -8.24 192.41 M-16.6 161.49 C-14.16 169.59, -13.62 174.6, -7.71 191.4" stroke="#000000" stroke-width="1" fill="none"/></g><g transform="translate(893.346818872882 276.4728785923548) rotate(0 -3.4501085980668904 95.36522940020342)"><path d="M2.8 163.72 C1.39 172.15, -5.6 182.9, -8.24 192.41 M3.91 162.37 C1.85 170.19, -2.11 175, -7.71 191.4" stroke="#000000" stroke-width="1" fill="none"/></g></g><g transform="translate(598.9742388044086 658.9279479980466) rotate(0 41 8.999999999999972)"><text x="0" y="14" font-family="Helvetica, Segoe UI Emoji" font-size="16px" fill="#000000" text-anchor="start" style="white-space: pre;" direction="ltr">swap quote</text></g><g stroke-linecap="round"><g transform="translate(810.7466823032925 714.8748648507253) rotate(0 -33.23262155516875 -1.7029402699773755)"><path d="M0.17 -0.48 C-10.86 -0.63, -55 -1.1, -66.17 -1.36 M-1.2 -1.78 C-12.31 -2.19, -55.59 -2.52, -66.63 -2.92" stroke="#000000" stroke-width="1" fill="none"/></g><g transform="translate(810.7466823032925 714.8748648507253) rotate(0 -33.23262155516875 -1.7029402699773755)"><path d="M-39.04 -11.07 C-45.06 -9.21, -54.8 -6.84, -68.59 -1.26 M-38.17 -13.37 C-45.34 -10.47, -53.35 -8, -67 -3.7" stroke="#000000" stroke-width="1" fill="none"/></g><g transform="translate(810.7466823032925 714.8748648507253) rotate(0 -33.23262155516875 -1.7029402699773755)"><path d="M-39.46 9.45 C-45.27 5.12, -54.88 1.3, -68.59 -1.26 M-38.6 7.15 C-45.77 4.45, -53.66 1.32, -67 -3.7" stroke="#000000" stroke-width="1" fill="none"/></g></g><g stroke-linecap="round"><g transform="translate(779.6761302210922 482.23483377657817) rotate(0 -98.88218584564515 -69.53987830090489)"><path d="M1.05 1.12 C-32.11 -22.02, -164.73 -115.18, -198.27 -138.55 M0.14 0.66 C-33.17 -22.83, -165.81 -116.54, -198.81 -140.2" stroke="#000000" stroke-width="1" fill="none"/></g><g transform="translate(779.6761302210922 482.23483377657817) rotate(0 -98.88218584564515 -69.53987830090489)"><path d="M-168.03 -130.95 C-178.69 -136.73, -189.93 -136.42, -197.66 -139.43 M-170.88 -131.61 C-179.14 -135.04, -190.03 -137.82, -198.47 -140.59" stroke="#000000" stroke-width="1" fill="none"/></g><g transform="translate(779.6761302210922 482.23483377657817) rotate(0 -98.88218584564515 -69.53987830090489)"><path d="M-179.92 -114.22 C-186.38 -126.06, -193.38 -131.7, -197.66 -139.43 M-182.77 -114.88 C-186.9 -124.24, -193.66 -132.84, -198.47 -140.59" stroke="#000000" stroke-width="1" fill="none"/></g></g><g transform="translate(696.7876456124443 385.00770568847634) rotate(0 39 18)"><text x="0" y="14" font-family="Helvetica, Segoe UI Emoji" font-size="16px" fill="#000000" text-anchor="start" style="white-space: pre;" direction="ltr">issues </text><text x="0" y="32" font-family="Helvetica, Segoe UI Emoji" font-size="16px" fill="#000000" text-anchor="start" style="white-space: pre;" direction="ltr">commands</text></g><g transform="translate(968.5908159528459 484.35609872000543) rotate(0 161.5 30)"><text x="0" y="14" font-family="Virgil, Segoe UI Emoji" font-size="16px" fill="#5f3dc4" text-anchor="start" style="white-space: pre;" direction="ltr">Handles core business logic of deposits,</text><text x="0" y="34" font-family="Virgil, Segoe UI Emoji" font-size="16px" fill="#5f3dc4" text-anchor="start" style="white-space: pre;" direction="ltr">withdrawals, and swaps. Can be paused, </text><text x="0" y="54" font-family="Virgil, Segoe UI Emoji" font-size="16px" fill="#5f3dc4" text-anchor="start" style="white-space: pre;" direction="ltr">or upgraded after.</text></g><g transform="translate(12.701219831194123 490.4406171526226) rotate(0 46.5 10)"><text x="0" y="14" font-family="Virgil, Segoe UI Emoji" font-size="16px" fill="#000000" text-anchor="start" style="white-space: pre;" direction="ltr">e.g. Stables</text></g><g transform="translate(387.48001970563615 424.683868408203) rotate(0 53.00000000000003 10)"><text x="0" y="14" font-family="Virgil, Segoe UI Emoji" font-size="16px" fill="#000000" text-anchor="start" style="white-space: pre;" direction="ltr">e.g. BUSD-LP</text></g><g transform="translate(945.3968287876673 240.95095825195295) rotate(0 44.49999999999994 10)"><text x="0" y="14" font-family="Virgil, Segoe UI Emoji" font-size="16px" fill="#000000" text-anchor="start" style="white-space: pre;" direction="ltr">incl. quotes</text></g><g stroke-linecap="round"><g transform="translate(381.8605934147673 180.8525266680709) rotate(0 23.887691863984003 22.745404439164222)" fill-rule="evenodd"><path d="M0.63 -3.09 L1.89 50.69 L9.96 52.14 L24.16 52.64 L38.76 53.14 L46.85 48.24 L49.33 -3.18 L42.11 -4.62 L21.27 -7.7 L5.61 -7.49 L1.22 -3.04" stroke="none" stroke-width="0" fill="#15aabf" fill-rule="evenodd"/><path d="M0.9 -3.71 C0.88 3.82, 0.5 34.26, 0.37 43.2 C0.23 52.14, -0.4 48.48, 0.09 49.94 C0.58 51.39, 1.37 51.41, 3.3 51.93 C5.24 52.45, 7.85 52.71, 11.71 53.06 C15.57 53.41, 21.76 54.18, 26.46 54.03 C31.16 53.87, 36.74 52.88, 39.9 52.13 C43.05 51.37, 44.28 50.33, 45.41 49.51 C46.54 48.7, 46.29 48.29, 46.67 47.22 C47.06 46.16, 47.67 50.95, 47.73 43.12 C47.79 35.28, 47.16 8.02, 47.02 0.2 C46.87 -7.62, 47.5 -2.83, 46.86 -3.81 C46.21 -4.79, 44.65 -5.27, 43.17 -5.68 C41.69 -6.09, 41.4 -6.11, 37.98 -6.26 C34.55 -6.41, 27.21 -6.52, 22.62 -6.58 C18.03 -6.65, 13.99 -6.99, 10.44 -6.65 C6.88 -6.3, 2.87 -5.27, 1.29 -4.49 C-0.29 -3.71, 1.04 -2.28, 0.94 -1.95 C0.84 -1.63, 0.83 -2.54, 0.68 -2.54 M-0.08 -1.56 C-0.28 6.08, -0.37 36.3, -0.46 44.59 C-0.55 52.89, -1.37 47.35, -0.63 48.22 C0.12 49.1, 2.13 48.97, 4.01 49.85 C5.89 50.73, 7.19 52.94, 10.66 53.51 C14.13 54.07, 20.39 53.13, 24.84 53.24 C29.29 53.36, 33.57 54.94, 37.36 54.2 C41.15 53.45, 45.76 49.64, 47.59 48.76 C49.42 47.88, 48.16 49.39, 48.34 48.9 C48.52 48.4, 48.85 53.82, 48.65 45.8 C48.46 37.77, 47.74 9.15, 47.18 0.74 C46.63 -7.67, 46.04 -3.41, 45.34 -4.65 C44.63 -5.89, 44.27 -6.44, 42.96 -6.71 C41.65 -6.98, 40.84 -6.3, 37.47 -6.27 C34.11 -6.25, 27.17 -6.12, 22.77 -6.55 C18.37 -6.97, 14.3 -9.33, 11.05 -8.84 C7.81 -8.34, 5.13 -4.86, 3.31 -3.57 C1.5 -2.28, 0.78 -1.35, 0.17 -1.11 C-0.44 -0.87, -0.41 -1.77, -0.35 -2.14" stroke="#000000" stroke-width="1" fill="none"/></g></g><g stroke-linecap="round" transform="translate(381.7228244345951 173.00665195817706) rotate(0 23.582862601152755 4.769456539922869)"><path d="M15.65 1.1 C19.98 0.78, 27.08 0.45, 31.62 0.64 C36.17 0.82, 40.5 1.48, 42.93 2.2 C45.37 2.91, 46.98 4.05, 46.26 4.93 C45.53 5.81, 42.42 6.83, 38.58 7.5 C34.75 8.17, 28.25 8.79, 23.25 8.96 C18.25 9.12, 12.46 9, 8.56 8.49 C4.67 7.97, 0.87 6.89, -0.13 5.86 C-1.14 4.84, -0.52 3.31, 2.52 2.35 C5.56 1.38, 14.97 0.59, 18.1 0.07 C21.24 -0.45, 21.26 -0.92, 21.33 -0.78 M29.44 0.97 C34 1.3, 39.17 2.09, 42.29 2.68 C45.41 3.27, 48.39 3.78, 48.14 4.5 C47.89 5.22, 44.6 6.01, 40.8 6.99 C37 7.98, 30.6 10.2, 25.33 10.43 C20.07 10.66, 13.56 9.02, 9.23 8.38 C4.91 7.73, 0.35 7.35, -0.6 6.57 C-1.56 5.79, 1.19 4.73, 3.49 3.68 C5.8 2.62, 8.73 0.86, 13.23 0.24 C17.73 -0.38, 27.69 0.19, 30.51 -0.03 C33.32 -0.26, 30.02 -1.27, 30.12 -1.09" stroke="none" stroke-width="0" fill="#15aabf"/><path d="M21.64 0.79 C26.48 0.47, 33 0.38, 37.26 0.88 C41.52 1.39, 45.74 2.91, 47.19 3.81 C48.64 4.71, 48.28 5.52, 45.98 6.28 C43.68 7.05, 38.13 8.02, 33.39 8.38 C28.66 8.74, 22.32 8.72, 17.57 8.45 C12.81 8.18, 7.84 7.55, 4.87 6.77 C1.91 5.99, -0.44 4.76, -0.2 3.77 C0.03 2.78, 2.46 1.51, 6.31 0.83 C10.16 0.14, 19.52 -0.26, 22.9 -0.32 C26.27 -0.39, 26.47 0.12, 26.54 0.41 M16.26 1.49 C20.81 1.41, 28.41 1.01, 33.13 1.18 C37.84 1.35, 42.1 1.68, 44.55 2.51 C46.99 3.34, 48.85 5.01, 47.81 6.15 C46.76 7.3, 42.29 8.94, 38.27 9.39 C34.25 9.83, 28.79 9.13, 23.67 8.82 C18.55 8.52, 11.55 8.12, 7.54 7.55 C3.53 6.97, 0.25 6.28, -0.38 5.36 C-1.01 4.44, 1.2 2.65, 3.75 2.04 C6.31 1.44, 12.86 1.94, 14.95 1.73 C17.04 1.52, 15.82 1.17, 16.28 0.79" stroke="#000000" stroke-width="1" fill="none"/></g><g stroke-linecap="round"><g transform="translate(910.3559823669916 559.2145474393255) rotate(0 24.0538788547413 26.058068669305896)" fill-rule="evenodd"><path d="M-1.46 -2.28 L1.02 53.53 L11.75 56.6 L26.65 55.93 L40.37 57.11 L50.14 51.61 L48.8 -1.86 L44.08 -2.77 L23.37 -6.42 L5.12 -1.98 L-1.33 1.6" stroke="none" stroke-width="0" fill="#15aabf" fill-rule="evenodd"/><path d="M-1.05 -0.51 C-1.06 7.43, -0.89 38.06, -0.52 46.74 C-0.15 55.43, 0.48 50.23, 1.17 51.58 C1.85 52.93, 1.8 53.8, 3.58 54.85 C5.36 55.9, 8.19 57.61, 11.82 57.88 C15.46 58.15, 20.78 56.52, 25.38 56.47 C29.99 56.41, 35.73 57.98, 39.45 57.56 C43.17 57.14, 46.06 54.9, 47.71 53.95 C49.36 53.01, 49.19 53, 49.36 51.88 C49.52 50.77, 48.76 55.45, 48.71 47.27 C48.66 39.1, 49.21 10.85, 49.04 2.83 C48.88 -5.19, 48.38 0.11, 47.73 -0.86 C47.08 -1.82, 46.75 -2.57, 45.13 -2.96 C43.51 -3.36, 41.49 -2.69, 37.99 -3.24 C34.49 -3.79, 28.53 -5.84, 24.15 -6.27 C19.76 -6.69, 15.38 -6.32, 11.68 -5.78 C7.98 -5.25, 3.92 -3.92, 1.94 -3.07 C-0.05 -2.22, 0.11 -1.14, -0.23 -0.68 C-0.56 -0.22, -0.19 -0.36, -0.06 -0.31 M0.61 -1.65 C1.02 6.51, 1.77 39.04, 1.84 48.04 C1.9 57.05, 1.19 51.05, 1.01 52.36 C0.82 53.67, -0.88 55.45, 0.73 55.91 C2.34 56.37, 6.37 54.68, 10.67 55.11 C14.96 55.55, 21.65 58.25, 26.5 58.53 C31.36 58.8, 36.41 57.59, 39.8 56.75 C43.18 55.91, 45.42 53.94, 46.8 53.48 C48.19 53.02, 47.66 55.15, 48.11 53.99 C48.56 52.83, 49.24 54.95, 49.48 46.51 C49.73 38.08, 49.58 11.38, 49.61 3.38 C49.64 -4.61, 50.38 -0.25, 49.66 -1.46 C48.95 -2.66, 47.44 -3.6, 45.32 -3.84 C43.21 -4.08, 40.39 -2.95, 36.96 -2.92 C33.54 -2.89, 28.8 -3.28, 24.77 -3.64 C20.74 -4.01, 16.81 -5.27, 12.78 -5.11 C8.75 -4.95, 3.01 -3.46, 0.61 -2.68 C-1.79 -1.91, -1.27 -0.92, -1.62 -0.48 C-1.96 -0.04, -1.98 -0.36, -1.48 -0.04" stroke="#000000" stroke-width="1" fill="none"/></g></g><g stroke-linecap="round" transform="translate(910.1905542553699 553.5256763964255) rotate(0 24.206958581475817 4.8956752566763555)"><path d="M33.62 0.38 C38.54 0.5, 44.31 1.29, 46.82 2.32 C49.33 3.35, 50.17 5.41, 48.68 6.56 C47.19 7.7, 42.32 8.49, 37.87 9.19 C33.42 9.89, 27.14 10.79, 21.96 10.76 C16.79 10.73, 10.58 9.76, 6.83 9.01 C3.08 8.26, -0.06 7.21, -0.52 6.23 C-0.98 5.26, 1.22 4.29, 4.09 3.17 C6.97 2.04, 11.57 -0.22, 16.73 -0.53 C21.89 -0.83, 31.73 0.99, 35.04 1.34 C38.35 1.68, 36.76 1.5, 36.58 1.55 M32.24 -0.21 C37.21 -0.34, 43.37 -0.03, 46.03 1.02 C48.69 2.07, 49.06 4.86, 48.19 6.09 C47.32 7.32, 45.09 7.76, 40.81 8.39 C36.53 9.02, 27.76 9.82, 22.51 9.88 C17.26 9.94, 12.83 9.38, 9.33 8.76 C5.83 8.14, 2.59 7.3, 1.52 6.18 C0.44 5.06, 0.42 2.92, 2.88 2.04 C5.33 1.15, 11.07 1.01, 16.24 0.84 C21.41 0.67, 30.95 0.84, 33.89 1 C36.83 1.15, 34.05 1.64, 33.88 1.77" stroke="none" stroke-width="0" fill="#15aabf"/><path d="M20.59 0.01 C25.3 0.04, 32.25 1.05, 36.54 1.42 C40.84 1.8, 44.7 1.28, 46.38 2.27 C48.05 3.26, 48.19 6.25, 46.59 7.35 C44.98 8.46, 41.03 8.55, 36.76 8.9 C32.49 9.25, 26.13 9.67, 20.98 9.45 C15.83 9.23, 9.31 8.46, 5.87 7.6 C2.44 6.74, 0.54 5.29, 0.39 4.27 C0.24 3.26, 1.46 2.24, 4.97 1.52 C8.49 0.8, 18.5 0.05, 21.5 -0.05 C24.49 -0.16, 22.79 0.94, 22.92 0.91 M24.64 -0.24 C29.74 -0.23, 36.41 0.37, 40.35 1.24 C44.29 2.12, 47.6 4.15, 48.27 5.02 C48.95 5.89, 47.49 5.67, 44.42 6.47 C41.34 7.27, 34.8 9.26, 29.8 9.82 C24.79 10.37, 18.95 10.16, 14.38 9.79 C9.81 9.43, 4.87 8.59, 2.38 7.64 C-0.11 6.68, -1.86 4.95, -0.58 4.05 C0.71 3.15, 5.95 2.88, 10.08 2.23 C14.21 1.57, 21.74 0.3, 24.21 0.13 C26.68 -0.04, 24.58 1.15, 24.88 1.18" stroke="#000000" stroke-width="1" fill="none"/></g><g transform="translate(378.6187177385602 110.34402901785703) rotate(0 163.49999999999997 20)"><text x="0" y="14" font-family="Virgil, Segoe UI Emoji" font-size="16px" fill="#0b7285" text-anchor="start" style="white-space: pre;" direction="ltr">Stores underlying token &amp; account </text><text x="0" y="34" font-family="Virgil, Segoe UI Emoji" font-size="16px" fill="#0b7285" text-anchor="start" style="white-space: pre;" direction="ltr">address, asset cash &amp; liability positions </text></g><g transform="translate(970.652060372489 581.4645690917966) rotate(0 89 10)"><text x="0" y="14" font-family="Virgil, Segoe UI Emoji" font-size="16px" fill="#0b7285" text-anchor="start" style="white-space: pre;" direction="ltr">Stores assets mapping</text></g><g transform="translate(262.12778799874434 10) rotate(0 390 21.5)"><text x="0" y="35" font-family="Cascadia, Segoe UI Emoji" font-size="36px" fill="#000000" text-anchor="start" style="white-space: pre;" direction="ltr">High Level Design for Wombat Exchange</text></g><g stroke-linecap="round"><g transform="translate(556.1078033447267 309.6862627183761) rotate(0 99.26474123233004 2.0241375709250633)"><path d="M1.1 1.01 C33.62 1.44, 163.42 3.29, 195.92 3.56 M0.21 0.49 C33.07 0.49, 165.84 1.28, 198.32 1.85" stroke="#000000" stroke-width="1" fill="none"/></g><g transform="translate(556.1078033447267 309.6862627183761) rotate(0 99.26474123233004 2.0241375709250633)"><path d="M171.69 10.82 C181.54 7.22, 190.34 6.27, 196.49 1.37 M169.48 12.45 C177.58 7.71, 186.09 5.68, 198.82 1.11" stroke="#000000" stroke-width="1" fill="none"/></g><g transform="translate(556.1078033447267 309.6862627183761) rotate(0 99.26474123233004 2.0241375709250633)"><path d="M171.91 -9.7 C181.85 -5.82, 190.57 0.7, 196.49 1.37 M169.7 -8.07 C177.73 -6.76, 186.17 -2.75, 198.82 1.11" stroke="#000000" stroke-width="1" fill="none"/></g></g><g stroke-linecap="round"><g transform="translate(556.1769256591798 294.2434433750963) rotate(0 141.77640679931272 -24.738145034899105)"><path d="M1 0.48 C47.76 -7.66, 234.31 -40.08, 281.31 -48.18 M0.06 -0.31 C47.13 -8.86, 236.4 -41.66, 283.49 -49.96" stroke="#000000" stroke-width="1" fill="none"/></g><g transform="translate(556.1769256591798 294.2434433750963) rotate(0 141.77640679931272 -24.738145034899105)"><path d="M258.29 -36.67 C267.87 -39.46, 277.34 -45.38, 284.84 -51.88 M256.86 -35.86 C267.24 -39.97, 277.66 -47.4, 283.21 -49.89" stroke="#000000" stroke-width="1" fill="none"/></g><g transform="translate(556.1769256591798 294.2434433750963) rotate(0 141.77640679931272 -24.738145034899105)"><path d="M254.76 -56.89 C265.72 -52.43, 276.46 -51.07, 284.84 -51.88 M253.33 -56.07 C264.83 -52.67, 276.58 -52.56, 283.21 -49.89" stroke="#000000" stroke-width="1" fill="none"/></g></g><g transform="translate(603.2210388183595 287.1509933471683) rotate(0 59 9)"><text x="0" y="14" font-family="Helvetica, Segoe UI Emoji" font-size="16px" fill="#000000" text-anchor="start" style="white-space: pre;" direction="ltr">ERC20 transfers</text></g></svg>